# Blender 4.0.2
# www.blender.org
mtllib helmet.mtl
o helmet.003
v 0.389030 1.747038 -0.497845
v 0.611932 1.747038 0.188165
v 0.002744 1.747035 0.605610
v 0.002744 2.126253 -0.006344
v 0.233449 1.442684 0.648834
v 0.583372 1.440239 -0.404669
v 0.240362 1.440239 -0.653879
v 0.583372 1.440239 0.401788
v 0.714389 1.440239 -0.001440
v 0.002744 1.800901 -0.552307
v 0.583368 1.800902 -0.181772
v 0.371380 1.800901 0.470667
v 0.002744 2.023798 0.360852
v 0.240361 2.023799 -0.293218
v 0.371379 2.023800 0.110006
v 0.266444 0.684722 0.479628
v 0.519879 0.684722 -0.300362
v 0.266444 0.684722 -0.484493
v 0.519879 0.684722 0.295497
v 0.616683 0.684722 -0.002432
v 0.207273 1.442684 0.568273
v 0.514843 1.440239 0.351999
v 0.629682 1.440239 -0.001440
v 0.514843 1.440239 -0.354880
v 0.214186 1.440239 -0.573318
v 0.247104 0.684722 0.420105
v 0.469246 0.684722 0.258710
v 0.554096 0.684722 -0.002432
v 0.469246 0.684722 -0.263574
v 0.247104 0.684722 -0.424969
v 0.002744 0.684722 -0.523213
v 0.002744 0.684722 -0.460665
v 0.002744 1.440239 -0.706285
v 0.002744 1.440239 -0.621631
v 0.002744 1.440239 0.596729
v 0.002744 1.440239 0.681398
v 0.207273 1.246988 0.568273
v 0.233449 1.246988 0.648834
v 0.193046 0.684722 0.437669
v 0.212386 0.684722 0.497192
v 0.167198 1.244543 0.674770
v 0.141023 1.244543 0.594209
v 0.049842 1.440802 0.590176
v 0.055870 1.440802 0.673899
v 0.002744 1.342585 0.596690
v 0.002744 1.342585 0.681359
v 0.050934 1.355349 0.590137
v 0.056962 1.355349 0.673860
v 0.223550 1.347686 0.567194
v 0.249726 1.347686 0.647755
v 0.144659 1.446439 0.671174
v 0.002744 1.598333 0.653311
v 0.128558 1.446439 0.589032
v -0.383542 1.747038 -0.497845
v -0.606445 1.747038 0.188165
v -0.227961 1.442684 0.648834
v -0.577884 1.440239 -0.404669
v -0.234874 1.440239 -0.653879
v -0.577884 1.440239 0.401788
v -0.708901 1.440239 -0.001441
v -0.577881 1.800902 -0.181772
v -0.365892 1.800901 0.470667
v -0.234874 2.023799 -0.293218
v -0.365891 2.023800 0.110006
v -0.260956 0.684722 0.479628
v -0.514392 0.684722 -0.300362
v -0.260956 0.684722 -0.484493
v -0.514392 0.684722 0.295497
v -0.611195 0.684722 -0.002432
v -0.201785 1.442684 0.568273
v -0.509355 1.440239 0.351999
v -0.624194 1.440239 -0.001441
v -0.509355 1.440239 -0.354880
v -0.208699 1.440239 -0.573318
v -0.241616 0.684722 0.420105
v -0.463758 0.684722 0.258710
v -0.548609 0.684722 -0.002432
v -0.463758 0.684722 -0.263574
v -0.241616 0.684722 -0.424969
v -0.201785 1.246988 0.568273
v -0.227961 1.246988 0.648834
v -0.187558 0.684722 0.437669
v -0.206898 0.684722 0.497192
v -0.161711 1.244543 0.674770
v -0.135535 1.244543 0.594209
v -0.044355 1.440802 0.590176
v -0.050382 1.440802 0.673899
v -0.045446 1.355349 0.590137
v -0.051474 1.355349 0.673860
v -0.218062 1.347686 0.567194
v -0.244238 1.347686 0.647755
v -0.139172 1.446439 0.671174
v -0.123070 1.446439 0.589032
vn 0.1942 0.6485 -0.7360
vn 0.7488 0.6617 0.0385
vn 0.1747 0.6523 0.7376
vn 0.1799 0.9475 0.2644
vn 0.3368 0.8009 0.4950
vn 0.6284 0.6617 0.4089
vn 0.2945 0.9509 -0.0957
vn 0.5773 0.7947 -0.1876
vn 0.5831 0.6617 -0.4713
vn 0.2793 0.3393 0.8983
vn 0.5681 0.1806 0.8029
vn 0.7488 0.3304 0.5746
vn 0.9435 0.3304 -0.0247
vn 0.9342 0.1876 -0.3035
vn 0.7779 0.3304 -0.5346
vn 0.1805 0.3750 -0.9093
vn 0.9435 0.1256 0.3066
vn -0.0000 -1.0000 -0.0000
vn 0.5831 0.1256 -0.8026
vn -0.9467 0.0951 -0.3076
vn -1.0000 -0.0000 -0.0000
vn -0.5826 0.1321 0.8019
vn -0.2404 0.8338 -0.4969
vn 0.9440 -0.1217 -0.3067
vn -0.1421 0.1848 0.9725
vn 0.5803 -0.1590 -0.7987
vn -0.9468 0.0943 0.3076
vn -0.6634 0.0993 -0.7417
vn 0.5866 0.0622 0.8075
vn -0.0035 -1.0000 0.0049
vn -0.5866 -0.0643 0.8073
vn 0.9003 0.1496 0.4089
vn -0.0000 0.0013 -1.0000
vn 0.9439 -0.1225 0.3067
vn 1.0000 -0.0000 -0.0000
vn 0.1420 -0.2119 -0.9669
vn 0.1988 0.3848 -0.9013
vn -0.9381 -0.1642 0.3048
vn 0.1397 0.0013 0.9902
vn 0.2191 0.2980 0.9291
vn -0.9369 -0.1722 0.3044
vn 0.2985 -0.2589 0.9186
vn -0.0327 0.9994 0.0106
vn -0.3012 0.2230 -0.9271
vn 0.0714 -0.9974 -0.0051
vn 0.2537 -0.9671 -0.0183
vn -0.1348 0.0004 -0.9909
vn 0.9973 0.0128 -0.0718
vn -0.9395 0.1551 0.3053
vn -0.0453 -0.9989 0.0089
vn 0.1358 0.1733 0.9755
vn -0.1942 0.6485 -0.7360
vn -0.7488 0.6617 0.0385
vn -0.1747 0.6523 0.7376
vn -0.1799 0.9475 0.2644
vn -0.3368 0.8009 0.4950
vn -0.6284 0.6617 0.4089
vn -0.2945 0.9509 -0.0957
vn -0.5773 0.7947 -0.1876
vn -0.5831 0.6617 -0.4713
vn -0.2793 0.3393 0.8983
vn -0.5681 0.1806 0.8029
vn -0.7488 0.3304 0.5746
vn -0.9435 0.3304 -0.0247
vn -0.9342 0.1876 -0.3035
vn -0.7779 0.3304 -0.5346
vn -0.1805 0.3750 -0.9093
vn -0.9435 0.1256 0.3066
vn -0.5831 0.1256 -0.8026
vn 0.9467 0.0951 -0.3076
vn 0.5826 0.1321 0.8019
vn 0.2404 0.8338 -0.4969
vn -0.9440 -0.1217 -0.3067
vn 0.2181 0.2034 0.9545
vn -0.5803 -0.1590 -0.7987
vn 0.9468 0.0943 0.3076
vn 0.5805 0.1567 -0.7990
vn 0.5866 -0.0622 -0.8075
vn 0.0035 -1.0000 0.0049
vn 0.5866 -0.0643 0.8073
vn -0.6141 -0.1603 0.7727
vn -0.9439 -0.1225 0.3067
vn -0.1420 -0.2119 -0.9669
vn -0.1988 0.3848 -0.9013
vn 0.9381 -0.1642 0.3048
vn -0.1397 0.0013 0.9902
vn -0.2432 0.3343 0.9105
vn 0.9369 -0.1722 0.3044
vn -0.3606 -0.2554 0.8971
vn 0.0327 0.9994 0.0106
vn 0.3012 0.2230 -0.9271
vn -0.0630 -0.9979 -0.0123
vn -0.2537 -0.9671 -0.0183
vn 0.1378 -0.0013 -0.9905
vn -0.9973 0.0128 -0.0718
vn 0.9395 0.1551 0.3053
vn 0.0391 -0.9992 0.0127
vn -0.1358 0.1733 0.9755
vn -0.2181 0.2034 0.9545
vn -0.5693 0.1345 -0.8111
vn -0.5793 0.1691 -0.7974
vn -0.9052 -0.1506 -0.3974
vn -0.0065 -1.0000 0.0021
vn 0.5754 -0.2046 0.7919
vn 0.5684 -0.1613 0.8068
vn 0.6860 -0.1032 0.7203
vn 0.2096 -0.2303 -0.9503
vn 0.1371 -0.0004 0.9906
vn 0.2432 0.3343 0.9105
vn 0.3606 -0.2554 0.8971
vn -0.3627 0.2196 -0.9057
vn 0.0630 -0.9979 -0.0123
vn 0.2292 -0.9734 -0.0000
vn -0.1378 -0.0013 -0.9905
vn -0.0391 -0.9992 0.0127
vn 0.0217 0.1368 0.9904
vn 0.1421 0.1848 0.9725
vn 0.5693 0.1345 -0.8111
vn 0.7577 0.1156 -0.6423
vn 0.9052 -0.1506 -0.3974
vn 0.0065 -1.0000 0.0021
vn -0.5754 -0.2046 0.7919
vn -0.5749 0.0893 0.8134
vn -0.6860 -0.1032 0.7203
vn -0.2096 -0.2303 -0.9503
vn -0.1371 -0.0004 0.9906
vn -0.2191 0.2980 0.9291
vn -0.2985 -0.2589 0.9186
vn 0.3627 0.2196 -0.9057
vn -0.0714 -0.9974 -0.0051
vn -0.2292 -0.9734 -0.0000
vn 0.1348 0.0004 -0.9909
vn 0.0453 -0.9989 0.0089
vn -0.0217 0.1368 0.9904
vt 0.980057 0.514933
vt 0.973389 0.516505
vt 0.977603 0.525850
vt 0.985373 0.518308
vt 0.983996 0.518420
vt 0.980485 0.528545
vt 0.973789 0.520563
vt 0.981166 0.522083
vt 0.973632 0.530249
vt 0.973486 0.531461
vt 0.978745 0.507743
vt 0.985509 0.506774
vt 0.987039 0.505444
vt 0.983730 0.504246
vt 0.977445 0.503548
vt 0.979513 0.474229
vt 0.983288 0.474716
vt 0.984397 0.474628
vt 0.985435 0.505431
vt 0.984006 0.506584
vt 0.982605 0.504374
vt 0.982278 0.475775
vt 0.978296 0.476187
vt 0.983142 0.475838
vt 0.984398 0.475261
vt 0.985608 0.475255
vt 0.978014 0.476085
vt 0.977069 0.503750
vt 0.973633 0.476168
vt 0.978167 0.498955
vt 0.978467 0.503326
vt 0.979127 0.503580
vt 0.973613 0.476275
vt 0.973437 0.503600
vt 0.973414 0.503388
vt 0.973897 0.507719
vt 0.975064 0.503971
vt 0.975017 0.507725
vt 0.973845 0.514471
vt 0.978402 0.474193
vt 0.979024 0.474373
vt 0.976808 0.498899
vt 0.977924 0.474338
vt 0.978825 0.499142
vt 0.976475 0.507652
vt 0.974837 0.507399
vt 0.973884 0.503162
vt 0.974884 0.503703
vt 0.973860 0.507391
vt 0.978093 0.507426
vt 0.976892 0.507978
vt 0.977447 0.499086
vt 0.973921 0.503423
s 0
usemtl Colors
f 1/1/1 10/2/1 14/3/1
f 2/4/2 11/5/2 15/6/2
f 3/7/3 12/8/3 13/9/3
f 13/9/4 15/6/4 4/10/4
f 13/9/5 12/8/5 15/6/5
f 12/8/6 2/4/6 15/6/6
f 15/6/7 14/3/7 4/10/7
f 15/6/8 11/5/8 14/3/8
f 11/5/9 1/1/9 14/3/9
f 5/11/10 12/8/10 3/7/10
f 5/11/11 8/12/11 12/8/11
f 8/12/12 2/4/12 12/8/12
f 9/13/13 11/5/13 2/4/13
f 9/13/14 6/14/14 11/5/14
f 6/14/15 1/1/15 11/5/15
f 7/15/16 10/2/16 1/1/16
f 8/12/17 9/13/17 2/4/17
f 16/16/18 27/17/18 19/18/18
f 6/14/19 7/15/19 1/1/19
f 23/19/20 27/17/20 22/20/20
f 9/13/18 24/21/18 6/14/18
f 29/22/18 18/23/18 17/24/18
f 19/18/18 28/25/18 20/26/18
f 13/9/21 4/10/21 3/7/21
f 30/27/22 24/21/22 25/28/22
f 14/3/23 10/2/23 4/10/23
f 17/24/24 9/13/24 20/26/24
f 25/28/25 32/29/25 30/27/25
f 18/23/26 6/14/26 17/24/26
f 29/22/27 23/19/27 24/21/27
f 27/17/28 37/30/28 49/31/28
f 24/21/29 17/24/29 6/14/29
f 20/26/18 29/22/18 17/24/18
f 9/13/18 22/20/18 23/19/18
f 5/11/30 22/20/30 8/12/30
f 7/15/18 24/21/18 25/28/18
f 19/18/31 22/20/31 27/17/31
f 19/18/32 5/11/32 50/32/32
f 20/26/33 23/19/33 9/13/33
f 19/18/34 9/13/34 8/12/34
f 31/33/35 34/34/35 32/29/35
f 7/15/18 34/34/18 33/35/18
f 30/27/18 31/33/18 18/23/18
f 31/33/36 7/15/36 18/23/36
f 33/35/37 10/2/37 7/15/37
f 5/11/38 49/31/38 50/32/38
f 36/36/39 48/37/39 44/38/39
f 52/39/40 5/11/40 3/7/40
f 40/40/18 26/41/18 16/16/18
f 40/40/41 42/42/41 39/43/41
f 38/44/42 40/40/42 16/16/42
f 42/42/43 38/44/43 37/30/43
f 39/43/44 37/30/44 26/41/44
f 53/45/45 44/38/45 43/46/45
f 48/37/46 45/47/46 47/48/46
f 35/49/47 47/48/47 45/47/47
f 44/38/48 47/48/48 43/46/48
f 38/44/49 49/31/49 37/30/49
f 21/50/50 51/51/50 53/45/50
f 44/38/51 52/39/51 36/36/51
f 54/1/52 63/3/52 10/2/52
f 55/4/53 64/6/53 61/5/53
f 3/7/54 13/9/54 62/8/54
f 13/9/55 4/10/55 64/6/55
f 13/9/56 64/6/56 62/8/56
f 62/8/57 64/6/57 55/4/57
f 64/6/58 4/10/58 63/3/58
f 64/6/59 63/3/59 61/5/59
f 61/5/60 63/3/60 54/1/60
f 56/11/61 3/7/61 62/8/61
f 56/11/62 62/8/62 59/12/62
f 59/12/63 62/8/63 55/4/63
f 60/13/64 55/4/64 61/5/64
f 60/13/65 61/5/65 57/14/65
f 57/14/66 61/5/66 54/1/66
f 58/15/67 54/1/67 10/2/67
f 59/12/68 55/4/68 60/13/68
f 65/16/18 76/17/18 75/41/18
f 57/14/69 54/1/69 58/15/69
f 72/19/70 76/17/70 77/25/70
f 73/21/18 60/13/18 57/14/18
f 67/23/18 78/22/18 66/24/18
f 69/26/18 76/17/18 68/18/18
f 73/21/71 79/27/71 74/28/71
f 63/3/72 4/10/72 10/2/72
f 60/13/73 66/24/73 69/26/73
f 74/28/74 32/29/74 34/34/74
f 57/14/75 67/23/75 66/24/75
f 72/19/76 78/22/76 73/21/76
f 90/31/77 75/41/77 76/17/77
f 73/21/78 66/24/78 57/14/78
f 69/26/18 78/22/18 77/25/18
f 60/13/18 71/20/18 59/12/18
f 71/20/79 56/11/79 59/12/79
f 58/15/18 73/21/18 57/14/18
f 71/20/80 68/18/80 76/17/80
f 91/32/81 59/12/81 68/18/81
f 72/19/33 69/26/33 60/13/33
f 68/18/82 60/13/82 69/26/82
f 58/15/18 34/34/18 74/28/18
f 79/27/18 31/33/18 32/29/18
f 58/15/83 31/33/83 67/23/83
f 33/35/84 58/15/84 10/2/84
f 90/31/85 56/11/85 91/32/85
f 89/37/86 36/36/86 87/38/86
f 52/39/87 56/11/87 92/51/87
f 75/41/18 83/40/18 65/16/18
f 83/40/88 85/42/88 84/52/88
f 81/44/89 83/40/89 84/52/89
f 81/44/90 85/42/90 80/30/90
f 80/30/91 82/43/91 75/41/91
f 93/45/92 87/38/92 92/51/92
f 45/47/93 89/37/93 88/48/93
f 35/49/94 88/48/94 86/46/94
f 88/48/95 87/38/95 86/46/95
f 81/44/96 90/31/96 91/32/96
f 70/50/97 92/51/97 56/11/97
f 52/39/98 87/38/98 36/36/98
f 16/16/18 26/41/18 27/17/18
f 23/19/20 28/25/20 27/17/20
f 9/13/18 23/19/18 24/21/18
f 29/22/18 30/27/18 18/23/18
f 19/18/18 27/17/18 28/25/18
f 30/27/22 29/22/22 24/21/22
f 17/24/24 6/14/24 9/13/24
f 25/28/99 34/34/99 32/29/99
f 18/23/26 7/15/26 6/14/26
f 29/22/27 28/25/27 23/19/27
f 21/50/100 22/20/100 27/17/100
f 27/17/101 26/41/101 37/30/101
f 49/31/102 21/50/102 27/17/102
f 24/21/29 29/22/29 17/24/29
f 20/26/18 28/25/18 29/22/18
f 9/13/18 8/12/18 22/20/18
f 5/11/103 21/50/103 22/20/103
f 7/15/18 6/14/18 24/21/18
f 19/18/31 8/12/31 22/20/31
f 38/44/104 16/16/104 19/18/104
f 19/18/105 8/12/105 5/11/105
f 50/32/106 38/44/106 19/18/106
f 20/26/33 28/25/33 23/19/33
f 19/18/34 20/26/34 9/13/34
f 31/33/35 33/35/35 34/34/35
f 7/15/18 25/28/18 34/34/18
f 30/27/18 32/29/18 31/33/18
f 31/33/107 33/35/107 7/15/107
f 5/11/38 21/50/38 49/31/38
f 36/36/108 46/53/108 48/37/108
f 52/39/109 51/51/109 5/11/109
f 40/40/18 39/43/18 26/41/18
f 40/40/41 41/52/41 42/42/41
f 38/44/110 41/52/110 40/40/110
f 42/42/43 41/52/43 38/44/43
f 39/43/111 42/42/111 37/30/111
f 53/45/112 51/51/112 44/38/112
f 48/37/113 46/53/113 45/47/113
f 35/49/114 43/46/114 47/48/114
f 44/38/48 48/37/48 47/48/48
f 38/44/49 50/32/49 49/31/49
f 21/50/115 5/11/115 51/51/115
f 44/38/116 51/51/116 52/39/116
f 65/16/18 68/18/18 76/17/18
f 72/19/70 71/20/70 76/17/70
f 73/21/18 72/19/18 60/13/18
f 67/23/18 79/27/18 78/22/18
f 69/26/18 77/25/18 76/17/18
f 73/21/71 78/22/71 79/27/71
f 60/13/73 57/14/73 66/24/73
f 74/28/117 79/27/117 32/29/117
f 57/14/75 58/15/75 67/23/75
f 72/19/76 77/25/76 78/22/76
f 76/17/118 71/20/118 70/50/118
f 90/31/119 80/30/119 75/41/119
f 76/17/120 70/50/120 90/31/120
f 73/21/78 78/22/78 66/24/78
f 69/26/18 66/24/18 78/22/18
f 60/13/18 72/19/18 71/20/18
f 71/20/121 70/50/121 56/11/121
f 58/15/18 74/28/18 73/21/18
f 71/20/80 59/12/80 68/18/80
f 68/18/122 65/16/122 81/44/122
f 91/32/123 56/11/123 59/12/123
f 68/18/124 81/44/124 91/32/124
f 72/19/33 77/25/33 69/26/33
f 68/18/82 59/12/82 60/13/82
f 58/15/18 33/35/18 34/34/18
f 79/27/18 67/23/18 31/33/18
f 58/15/125 33/35/125 31/33/125
f 90/31/85 70/50/85 56/11/85
f 89/37/126 46/53/126 36/36/126
f 52/39/127 3/7/127 56/11/127
f 75/41/18 82/43/18 83/40/18
f 83/40/88 82/43/88 85/42/88
f 81/44/128 65/16/128 83/40/128
f 81/44/90 84/52/90 85/42/90
f 80/30/129 85/42/129 82/43/129
f 93/45/130 86/46/130 87/38/130
f 45/47/131 46/53/131 89/37/131
f 35/49/132 45/47/132 88/48/132
f 88/48/95 89/37/95 87/38/95
f 81/44/96 80/30/96 90/31/96
f 70/50/133 93/45/133 92/51/133
f 52/39/134 92/51/134 87/38/134
