# Blender 4.0.2
# www.blender.org
mtllib DungeonForestDoor.mtl
o Dungeon-Forest-Door
v -8.911842 9.870496 169.118195
v -8.996944 12.941559 170.911087
v -5.182899 9.924061 169.976166
v -5.973563 12.984989 171.606720
v -9.043468 9.535480 169.711197
v -9.103665 12.669932 171.391891
v -5.314526 9.589046 170.569168
v -6.080284 12.713363 172.087524
v -8.706586 13.595261 171.431534
v -6.479856 13.627248 171.943878
v -6.558457 13.427195 172.297974
v -8.785186 13.395207 171.785645
v -8.243638 13.799674 171.761749
v -7.045942 13.816879 172.037323
v -7.088219 13.709276 172.227783
v -8.285915 13.692071 171.952209
vn 0.1875 0.4991 -0.8460
vn 0.9571 0.1030 0.2707
vn -0.1919 -0.4666 0.8634
vn -0.9816 0.0752 -0.1754
vn 0.1202 -0.8755 -0.4679
vn 0.8076 0.4184 0.4156
vn -0.2186 -0.1714 0.9606
vn -0.2003 -0.3981 0.8952
vn 0.1775 0.5635 -0.8068
vn -0.9191 0.3936 0.0184
vn -0.1202 0.8755 0.4679
vn 0.1402 0.7418 -0.6558
vn -0.5602 0.7683 0.3097
vn 0.3473 0.7813 0.5185
vt 0.930162 0.258308
vt 0.916922 0.301361
vt 0.916453 0.262975
vt 0.918961 0.300581
vt 0.918639 0.263723
vt 0.932179 0.259477
vt 0.931595 0.304958
vt 0.920147 0.308943
vt 0.926591 0.315509
vt 0.929289 0.313381
vt 0.929702 0.306140
vt 0.918671 0.309770
vt 0.927887 0.314499
vt 0.920923 0.313394
vt 0.921709 0.312875
vt 0.925826 0.316119
s 0
usemtl Colors
f 1/1/1 4/2/1 3/3/1
f 3/3/2 8/4/2 7/5/2
f 8/4/3 5/6/3 7/5/3
f 6/7/4 1/1/4 5/6/4
f 7/5/5 1/1/5 3/3/5
f 4/2/6 11/8/6 8/4/6
f 11/8/7 16/9/7 12/10/7
f 8/4/8 12/10/8 6/7/8
f 2/11/9 10/12/9 4/2/9
f 6/7/10 9/13/10 2/11/10
f 14/14/11 16/9/11 15/15/11
f 9/13/12 14/14/12 10/12/12
f 12/10/13 13/16/13 9/13/13
f 10/12/14 15/15/14 11/8/14
f 1/1/1 2/11/1 4/2/1
f 3/3/2 4/2/2 8/4/2
f 8/4/3 6/7/3 5/6/3
f 6/7/4 2/11/4 1/1/4
f 7/5/5 5/6/5 1/1/5
f 4/2/6 10/12/6 11/8/6
f 11/8/7 15/15/7 16/9/7
f 8/4/8 11/8/8 12/10/8
f 2/11/9 9/13/9 10/12/9
f 6/7/10 12/10/10 9/13/10
f 14/14/11 13/16/11 16/9/11
f 9/13/12 13/16/12 14/14/12
f 12/10/13 16/9/13 13/16/13
f 10/12/14 14/14/14 15/15/14
