# Blender 4.0.2
# www.blender.org
mtllib Sashimi.mtl
o Cylinder.018
v -0.591115 0.000000 -0.793109
v 0.567774 -0.000000 -0.793109
v -0.591115 -0.686852 -0.396554
v 0.567774 -0.686852 -0.396554
v -0.591115 -0.686852 0.396554
v 0.567774 -0.686852 0.396554
v -0.591115 0.000000 0.793109
v 0.567774 -0.000000 0.793109
v -0.591115 0.686852 0.396554
v 0.567774 0.686852 0.396554
v -0.591115 0.686852 -0.396554
v 0.567774 0.686852 -0.396554
v -0.788849 0.000000 -0.723899
v -0.788849 -0.626915 -0.361950
v 0.765507 -0.626915 -0.361950
v 0.765507 -0.000000 -0.723899
v -0.788849 -0.626915 0.361950
v 0.765507 -0.626915 0.361950
v -0.788849 0.000000 0.723899
v 0.765507 -0.000000 0.723899
v -0.788849 0.626915 0.361950
v 0.765507 0.626915 0.361950
v -0.788849 0.626915 -0.361950
v 0.765507 0.626915 -0.361950
vn -0.0000 -0.5000 -0.8660
vn -0.0000 -1.0000 -0.0000
vn -0.0000 -0.5000 0.8660
vn -0.0000 0.5000 0.8660
vn -0.2901 0.4785 -0.8288
vn -0.0000 1.0000 -0.0000
vn -0.0000 0.5000 -0.8660
vn 0.2901 -0.9570 -0.0000
vn 1.0000 -0.0000 -0.0000
vn -1.0000 -0.0000 -0.0000
vn -0.2901 0.9570 -0.0000
vn -0.2901 0.4785 0.8288
vn 0.2901 0.4785 -0.8288
vn -0.2901 -0.4785 -0.8288
vn -0.2901 -0.4785 0.8288
vn 0.2901 0.9570 -0.0000
vn -0.2901 -0.9570 -0.0000
vn 0.2901 0.4785 0.8288
vn 0.2901 -0.4785 -0.8288
vn 0.2901 -0.4785 0.8288
vt 0.955768 0.943837
vt 0.975726 0.920538
vt 0.975198 0.944058
vt 0.957605 0.921167
vt 0.976529 0.922834
vt 0.960659 0.923312
vt 0.976829 0.942646
vt 0.961932 0.942518
vt 0.976472 0.962900
vt 0.975667 0.966547
vt 0.978713 0.944017
vt 0.978892 0.964548
vt 0.960702 0.962139
vt 0.957675 0.965549
vt 0.957921 0.925014
vt 0.952986 0.943727
vt 0.957975 0.960459
vt 0.978968 0.922563
vt 0.979434 0.942716
vt 0.979252 0.961419
vt 0.979321 0.924439
vt 0.954894 0.963319
vt 0.954814 0.923301
vt 0.959245 0.942541
s 0
usemtl Colors
f 2/1/1 3/2/1 1/3/1
f 4/4/2 5/5/2 3/2/2
f 6/6/3 7/7/3 5/5/3
f 8/8/4 9/9/4 7/7/4
f 11/10/5 13/11/5 23/12/5
f 10/13/6 11/10/6 9/9/6
f 12/14/7 1/3/7 11/10/7
f 4/4/8 18/15/8 6/6/8
f 16/16/9 22/17/9 18/15/9
f 14/18/10 19/19/10 23/12/10
f 11/10/11 21/20/11 9/9/11
f 9/9/12 19/19/12 7/7/12
f 12/14/13 16/16/13 2/1/13
f 3/2/14 13/11/14 1/3/14
f 7/7/15 17/21/15 5/5/15
f 10/13/16 24/22/16 12/14/16
f 5/5/17 14/18/17 3/2/17
f 8/8/18 22/17/18 10/13/18
f 4/4/19 16/16/19 15/23/19
f 6/6/20 20/24/20 8/8/20
f 2/1/1 4/4/1 3/2/1
f 4/4/2 6/6/2 5/5/2
f 6/6/3 8/8/3 7/7/3
f 8/8/4 10/13/4 9/9/4
f 11/10/5 1/3/5 13/11/5
f 10/13/6 12/14/6 11/10/6
f 12/14/7 2/1/7 1/3/7
f 4/4/8 15/23/8 18/15/8
f 18/15/9 15/23/9 16/16/9
f 16/16/9 24/22/9 22/17/9
f 22/17/9 20/24/9 18/15/9
f 23/12/10 13/11/10 14/18/10
f 14/18/10 17/21/10 19/19/10
f 19/19/10 21/20/10 23/12/10
f 11/10/11 23/12/11 21/20/11
f 9/9/12 21/20/12 19/19/12
f 12/14/13 24/22/13 16/16/13
f 3/2/14 14/18/14 13/11/14
f 7/7/15 19/19/15 17/21/15
f 10/13/16 22/17/16 24/22/16
f 5/5/17 17/21/17 14/18/17
f 8/8/18 20/24/18 22/17/18
f 4/4/19 2/1/19 16/16/19
f 6/6/20 18/15/20 20/24/20
o Cube.061
v -0.716706 0.441892 0.503234
v -0.716706 0.502178 0.678265
v -0.961927 0.502178 0.503234
v -0.716706 0.459550 0.627000
v -0.858284 0.467372 0.604288
v -0.890103 0.502178 0.627000
v -0.890103 0.459550 0.503234
v -0.716706 0.848836 0.678265
v -0.716706 0.909123 0.503234
v -0.961927 0.848836 0.503234
v -0.716706 0.891465 0.627000
v -0.858284 0.883643 0.604288
v -0.890103 0.891465 0.503234
v -0.890103 0.848836 0.627000
v -0.716706 0.441892 -0.503234
v -0.961927 0.502178 -0.503234
v -0.716706 0.502178 -0.678265
v -0.890103 0.459550 -0.503234
v -0.858284 0.467372 -0.604288
v -0.890103 0.502178 -0.627000
v -0.716706 0.459550 -0.627000
v -0.716706 0.909123 -0.503234
v -0.716706 0.848836 -0.678265
v -0.961927 0.848836 -0.503234
v -0.716706 0.891465 -0.627000
v -0.858284 0.883643 -0.604288
v -0.890103 0.848836 -0.627000
v -0.890103 0.891465 -0.503234
v 0.693365 0.441892 0.503234
v 0.938585 0.502178 0.503234
v 0.693365 0.502178 0.678265
v 0.866762 0.459550 0.503234
v 0.834943 0.467372 0.604288
v 0.866762 0.502178 0.627000
v 0.693365 0.459550 0.627000
v 0.693365 0.909123 0.503234
v 0.693365 0.848836 0.678265
v 0.938585 0.848836 0.503234
v 0.693365 0.891465 0.627000
v 0.834943 0.883643 0.604288
v 0.866762 0.848836 0.627000
v 0.866762 0.891465 0.503234
v 0.693365 0.441892 -0.503234
v 0.693365 0.502178 -0.678265
v 0.938585 0.502178 -0.503234
v 0.693365 0.459550 -0.627000
v 0.834943 0.467372 -0.604288
v 0.866762 0.502178 -0.627000
v 0.866762 0.459550 -0.503234
v 0.693365 0.909123 -0.503234
v 0.938585 0.848836 -0.503234
v 0.693365 0.848836 -0.678265
v 0.866762 0.891465 -0.503234
v 0.834943 0.883643 -0.604288
v 0.866762 0.848836 -0.627000
v 0.693365 0.891465 -0.627000
v -0.011671 0.441892 -0.503234
v -0.011671 0.459550 -0.627000
v -0.011671 0.502178 -0.678265
v -0.011671 0.909123 -0.503234
v -0.011671 0.891465 -0.627000
v -0.011671 0.848836 -0.678265
v -0.011671 0.441892 0.503234
v -0.011671 0.459550 0.627000
v -0.011671 0.502178 0.678265
v -0.011671 0.909123 0.503234
v -0.011671 0.891465 0.627000
v -0.011671 0.848836 0.678265
v 0.311392 0.459550 -0.627000
v 0.340847 0.459550 -0.627000
v 0.375634 0.459550 -0.627000
v 0.311392 0.502178 -0.678265
v 0.340847 0.502178 -0.678265
v 0.375634 0.502178 -0.678265
v 0.311392 0.909123 -0.503234
v 0.340847 0.909123 -0.503234
v 0.375634 0.909123 -0.503234
v 0.311392 0.441892 0.503234
v 0.340847 0.441892 0.503234
v 0.375634 0.441892 0.503234
v 0.311392 0.891465 0.627000
v 0.340847 0.891465 0.627000
v 0.375634 0.891465 0.627000
v 0.311392 0.848836 0.678265
v 0.340847 0.848836 0.678265
v 0.375634 0.848836 0.678265
v 0.375634 0.441892 -0.503234
v 0.340847 0.441892 -0.503234
v 0.311392 0.441892 -0.503234
v 0.375634 0.891465 -0.627000
v 0.340847 0.891465 -0.627000
v 0.311392 0.891465 -0.627000
v 0.375634 0.848836 -0.678265
v 0.340847 0.848836 -0.678265
v 0.311392 0.848836 -0.678265
v 0.375634 0.459550 0.627000
v 0.340847 0.459550 0.627000
v 0.311392 0.459550 0.627000
v 0.375634 0.502178 0.678265
v 0.340847 0.502178 0.678265
v 0.311392 0.502178 0.678265
v 0.375634 0.909123 0.503234
v 0.340847 0.909123 0.503234
v 0.311392 0.909123 0.503234
v 0.032620 0.441892 -0.503234
v 0.032620 0.891465 -0.627000
v 0.032620 0.848836 -0.678265
v 0.032620 0.459550 0.627000
v 0.032620 0.502178 0.678265
v 0.032620 0.909123 0.503234
v 0.032620 0.459550 -0.627000
v 0.032620 0.502178 -0.678265
v 0.032620 0.909123 -0.503234
v 0.032620 0.441892 0.503234
v 0.032620 0.891465 0.627000
v 0.032620 0.848836 0.678265
v -0.364189 0.441892 -0.503234
v -0.364189 0.891465 -0.627000
v -0.364189 0.848836 -0.678265
v -0.364189 0.459550 0.627000
v -0.364189 0.502178 0.678265
v -0.364189 0.909123 0.503234
v -0.364189 0.459550 -0.627000
v -0.364189 0.502178 -0.678265
v -0.364189 0.909123 -0.503234
v -0.364189 0.441892 0.503234
v -0.364189 0.891465 0.627000
v -0.364189 0.848836 0.678265
v -0.410386 0.441892 -0.503234
v -0.410386 0.891465 -0.627000
v -0.410386 0.848836 -0.678265
v -0.410386 0.459550 0.627000
v -0.410386 0.502178 0.678265
v -0.410386 0.909123 0.503234
v -0.410386 0.459550 -0.627000
v -0.410386 0.502178 -0.678265
v -0.410386 0.909123 -0.503234
v -0.410386 0.441892 0.503234
v -0.410386 0.891465 0.627000
v -0.410386 0.848836 0.678265
vn -0.0000 -0.0000 1.0000
vn 1.0000 -0.0000 -0.0000
vn -0.0000 1.0000 -0.0000
vn -1.0000 -0.0000 -0.0000
vn -0.0000 -0.0000 -1.0000
vn -0.1007 -0.9890 0.1083
vn -0.1435 -0.7609 0.6327
vn -0.5766 -0.7454 0.3346
vn -0.2123 0.6627 0.7182
vn -0.0771 0.9870 0.1408
vn -0.4977 0.8386 0.2216
vn -0.0771 -0.9870 -0.1408
vn -0.4977 -0.8386 -0.2216
vn -0.2123 -0.6627 -0.7182
vn -0.1007 0.9890 -0.1083
vn -0.1435 0.7609 -0.6327
vn -0.5766 0.7454 -0.3346
vn 0.0771 -0.9870 0.1408
vn 0.4977 -0.8386 0.2216
vn 0.2123 -0.6627 0.7182
vn 0.1007 0.9890 0.1083
vn 0.1435 0.7609 0.6327
vn 0.5766 0.7454 0.3346
vn 0.1007 -0.9890 -0.1083
vn 0.1435 -0.7609 -0.6327
vn 0.5766 -0.7454 -0.3346
vn 0.0771 0.9870 -0.1408
vn 0.4977 0.8386 -0.2216
vn 0.2123 0.6627 -0.7182
vn -0.1013 -0.9949 -0.0000
vn -0.5104 -0.8599 -0.0000
vn -0.2835 -0.0000 0.9590
vn -0.8649 -0.0000 0.5019
vn -0.1013 0.9949 -0.0000
vn -0.5104 0.8599 -0.0000
vn -0.2835 -0.0000 -0.9590
vn -0.8649 -0.0000 -0.5019
vn -0.0000 -0.9900 -0.1412
vn -0.0000 -0.7689 -0.6394
vn -0.0000 0.9900 -0.1412
vn -0.0000 0.7689 -0.6394
vn 0.8649 -0.0000 -0.5019
vn 0.2835 -0.0000 -0.9590
vn 0.1013 -0.9949 -0.0000
vn 0.5104 -0.8599 -0.0000
vn 0.1013 0.9949 -0.0000
vn 0.5104 0.8599 -0.0000
vn 0.2835 -0.0000 0.9590
vn 0.8649 -0.0000 0.5019
vn -0.0000 -0.9900 0.1412
vn -0.0000 -0.7689 0.6394
vn -0.0000 0.9900 0.1412
vn -0.0000 0.7689 0.6394
vn -0.0000 -1.0000 -0.0000
vn -0.0771 -0.9870 0.1408
vn -0.2123 -0.6627 0.7182
vn -0.4977 -0.8386 0.2216
vn -0.1435 0.7609 0.6327
vn -0.1007 0.9890 0.1083
vn -0.5766 0.7454 0.3346
vn -0.1007 -0.9890 -0.1083
vn -0.5766 -0.7454 -0.3346
vn -0.1435 -0.7609 -0.6327
vn -0.0771 0.9870 -0.1408
vn -0.2123 0.6627 -0.7182
vn -0.4977 0.8386 -0.2216
vn 0.1007 -0.9890 0.1083
vn 0.5766 -0.7454 0.3346
vn 0.1435 -0.7609 0.6327
vn 0.0771 0.9870 0.1408
vn 0.2123 0.6627 0.7182
vn 0.4977 0.8386 0.2216
vn 0.0771 -0.9870 -0.1408
vn 0.2123 -0.6627 -0.7182
vn 0.4977 -0.8386 -0.2216
vn 0.1007 0.9890 -0.1083
vn 0.5766 0.7454 -0.3346
vn 0.1435 0.7609 -0.6327
vt 0.798260 0.420214
vt 0.793363 0.373352
vt 0.798260 0.373352
vt 0.815908 0.420214
vt 0.815908 0.373352
vt 0.793363 0.420214
vt 0.813090 0.420214
vt 0.813090 0.373352
vt 0.791099 0.368647
vt 0.790590 0.373352
vt 0.793363 0.367589
vt 0.791099 0.424920
vt 0.790590 0.420214
vt 0.793363 0.425977
vt 0.818172 0.368647
vt 0.815908 0.367589
vt 0.818172 0.424920
vt 0.818681 0.420214
vt 0.818681 0.373352
vt 0.815908 0.425977
vt 0.798260 0.425977
vt 0.798260 0.367589
vt 0.813090 0.425977
vt 0.813090 0.367589
vt 0.798260 0.367589
vt 0.798260 0.425977
vt 0.804635 0.420214
vt 0.798999 0.373352
vt 0.798999 0.420214
vt 0.981445 0.963926
vt 0.981832 0.958164
vt 0.981832 0.963926
vt 0.981445 0.911301
vt 0.981832 0.905538
vt 0.981832 0.911301
vt 0.804635 0.367589
vt 0.798999 0.367589
vt 0.804635 0.373352
vt 0.804635 0.425977
vt 0.798999 0.425977
vt 0.981445 0.905538
vt 0.981445 0.958164
vt 0.984605 0.976650
vt 0.982126 0.935424
vt 0.984605 0.935424
vt 0.810272 0.420214
vt 0.807454 0.373352
vt 0.810272 0.373352
vt 0.982126 0.976650
vt 0.807454 0.420214
vt 0.984605 0.981720
vt 0.810272 0.425977
vt 0.813090 0.367589
vt 0.982126 0.930355
vt 0.984605 0.930355
vt 0.807454 0.367589
vt 0.810272 0.367589
vt 0.982126 0.981720
vt 0.807454 0.425977
vt 0.805022 0.373352
vt 0.805022 0.420214
vt 0.807454 0.367589
vt 0.805022 0.367589
vt 0.805022 0.425977
vt 0.975070 0.958164
vt 0.975809 0.911301
vt 0.975070 0.911301
vt 0.975809 0.958164
vt 0.975070 0.963926
vt 0.975809 0.963926
vt 0.975070 0.905538
vt 0.975809 0.905538
s 0
usemtl Colors
f 164/25/21 26/26/21 157/27/21
f 75/28/22 54/26/22 69/29/22
f 46/30/23 158/27/23 161/25/23
f 34/30/24 40/29/24 27/26/24
f 117/31/25 68/29/25 98/32/25
f 25/26/26 29/33/26 31/34/26
f 26/26/27 29/33/27 28/35/27
f 27/26/28 29/33/28 30/34/28
f 32/30/29 36/36/29 38/37/29
f 33/26/30 36/33/30 35/35/30
f 34/30/31 36/36/31 37/38/31
f 39/30/32 43/36/32 45/38/32
f 40/29/33 43/39/33 42/40/33
f 41/26/34 43/33/34 44/34/34
f 46/30/35 50/36/35 52/37/35
f 47/30/36 50/36/36 49/38/36
f 48/28/37 50/41/37 51/42/37
f 53/29/38 57/39/38 59/40/38
f 54/26/39 57/33/39 56/35/39
f 55/29/40 57/39/40 58/43/40
f 60/29/41 64/39/41 66/43/41
f 61/28/42 64/41/42 63/44/42
f 62/30/43 64/36/43 65/37/43
f 67/28/44 71/41/44 73/42/44
f 68/29/45 71/39/45 70/40/45
f 69/29/46 71/39/46 72/43/46
f 74/28/47 78/41/47 80/44/47
f 75/28/48 78/41/48 77/44/48
f 76/28/49 78/41/49 79/42/49
f 25/26/50 42/37/50 39/30/50
f 31/35/51 40/29/51 42/40/51
f 32/30/52 30/34/52 26/26/52
f 38/37/53 27/26/53 30/34/53
f 46/30/54 37/34/54 33/26/54
f 52/44/55 34/30/55 37/38/55
f 41/26/56 51/37/56 47/30/56
f 44/43/57 48/28/57 51/42/57
f 39/30/58 159/45/58 153/25/58
f 45/35/59 160/27/59 159/46/59
f 74/28/60 114/47/60 101/31/60
f 80/44/61 117/31/61 114/47/61
f 69/29/62 79/42/62 75/28/62
f 72/43/63 76/28/63 79/42/63
f 67/28/64 56/43/64 53/29/64
f 73/40/65 54/26/65 56/35/65
f 60/29/66 77/42/66 74/28/66
f 66/38/67 75/28/67 77/44/67
f 55/29/68 65/42/68 61/28/68
f 58/34/69 62/30/69 65/37/69
f 53/29/70 120/48/70 104/32/70
f 59/40/71 123/32/71 120/48/71
f 33/26/72 163/49/72 158/27/72
f 35/38/73 164/25/73 163/50/73
f 67/28/74 104/32/74 111/31/74
f 81/51/74 150/52/74 141/53/74
f 91/54/73 140/55/73 139/56/73
f 90/57/72 139/58/72 134/59/72
f 88/60/71 145/52/71 144/61/71
f 87/62/70 144/61/70 150/52/70
f 85/63/61 143/53/61 142/64/61
f 84/51/60 142/64/60 149/53/60
f 82/65/59 136/59/59 135/58/59
f 81/66/58 135/56/58 129/55/58
f 143/53/25 83/62/25 148/52/25
f 84/66/23 134/59/23 137/55/23
f 140/55/21 89/57/21 133/59/21
f 61/28/21 123/32/21 55/29/21
f 110/67/21 124/68/21 123/69/21
f 109/70/21 125/71/21 124/72/21
f 101/31/23 60/29/23 74/28/23
f 100/73/23 126/69/23 101/67/23
f 99/74/23 127/72/23 100/70/23
f 111/31/58 70/44/58 67/28/58
f 112/73/58 95/75/58 111/67/58
f 113/74/58 94/76/58 112/70/58
f 95/77/59 68/29/59 70/40/59
f 94/78/59 98/69/59 95/79/59
f 93/80/59 97/72/59 94/81/59
f 126/32/72 63/40/72 60/29/72
f 127/68/72 107/79/72 126/69/72
f 128/71/72 106/81/72 127/72/72
f 107/47/73 61/28/73 63/44/73
f 106/82/73 110/67/73 107/75/73
f 105/83/73 109/70/73 106/76/73
f 113/74/74 138/84/74 129/85/74
f 112/70/74 102/71/74 113/74/74
f 111/67/74 103/68/74 112/73/74
f 122/86/71 133/84/71 132/87/71
f 121/81/71 125/71/71 122/86/71
f 120/79/71 124/68/71 121/78/71
f 102/71/70 132/87/70 138/84/70
f 103/72/70 122/86/70 102/71/70
f 104/69/70 121/78/70 103/68/70
f 116/83/61 131/85/61 130/88/61
f 115/76/61 119/74/61 116/83/61
f 114/75/61 118/73/61 115/82/61
f 99/74/60 130/88/60 137/85/60
f 100/70/60 116/83/60 99/74/60
f 101/67/60 115/82/60 100/73/60
f 131/85/25 96/71/25 136/84/25
f 119/74/25 97/72/25 96/71/25
f 118/73/25 98/69/25 97/68/25
f 86/66/25 136/59/25 83/57/25
f 137/55/60 85/54/60 84/66/60
f 130/56/61 86/66/61 85/54/61
f 138/59/70 88/65/70 87/57/70
f 132/58/71 89/57/71 88/65/71
f 129/55/74 87/57/74 81/66/74
f 108/74/21 133/84/21 125/71/21
f 137/85/23 128/71/23 99/74/23
f 129/85/58 93/83/58 113/74/58
f 135/87/59 96/71/59 93/80/59
f 134/84/72 105/80/72 128/71/72
f 139/88/73 108/74/73 105/83/73
f 155/89/25 148/90/25 160/91/25
f 149/92/60 154/93/60 161/89/60
f 142/94/61 155/89/61 154/93/61
f 150/90/70 156/95/70 162/91/70
f 144/96/71 157/91/71 156/95/71
f 141/92/74 162/91/74 153/89/74
f 151/64/73 92/51/73 91/63/73
f 146/52/72 91/60/72 90/62/72
f 147/61/59 83/62/59 82/60/59
f 141/53/58 82/63/58 81/51/58
f 149/53/23 90/62/23 84/51/23
f 92/51/21 145/52/21 89/62/21
f 153/25/74 25/26/74 39/30/74
f 156/46/71 26/26/71 28/35/71
f 162/27/70 28/35/70 25/26/70
f 154/50/61 47/30/61 49/38/61
f 161/25/60 49/38/60 46/30/60
f 47/30/25 160/27/25 41/26/25
f 163/93/73 152/92/73 151/94/73
f 158/91/72 151/96/72 146/90/72
f 159/95/59 148/90/59 147/96/59
f 153/89/58 147/94/58 141/92/58
f 161/89/23 146/90/23 149/92/23
f 152/92/21 157/91/21 145/90/21
f 164/25/21 32/30/21 26/26/21
f 75/28/22 62/30/22 54/26/22
f 46/30/23 33/26/23 158/27/23
f 34/30/24 48/28/24 40/29/24
f 117/31/25 76/28/25 68/29/25
f 25/26/75 28/35/75 29/33/75
f 26/26/76 30/34/76 29/33/76
f 27/26/77 31/35/77 29/33/77
f 32/30/78 35/38/78 36/36/78
f 33/26/79 37/34/79 36/33/79
f 34/30/80 38/37/80 36/36/80
f 39/30/81 42/37/81 43/36/81
f 40/29/82 44/43/82 43/39/82
f 41/26/83 45/35/83 43/33/83
f 46/30/84 49/38/84 50/36/84
f 47/30/85 51/37/85 50/36/85
f 48/28/86 52/44/86 50/41/86
f 53/29/87 56/43/87 57/39/87
f 54/26/88 58/34/88 57/33/88
f 55/29/89 59/40/89 57/39/89
f 60/29/90 63/40/90 64/39/90
f 61/28/91 65/42/91 64/41/91
f 62/30/92 66/38/92 64/36/92
f 67/28/93 70/44/93 71/41/93
f 68/29/94 72/43/94 71/39/94
f 69/29/95 73/40/95 71/39/95
f 74/28/96 77/42/96 78/41/96
f 75/28/97 79/42/97 78/41/97
f 76/28/98 80/44/98 78/41/98
f 25/26/50 31/34/50 42/37/50
f 31/35/51 27/26/51 40/29/51
f 32/30/52 38/37/52 30/34/52
f 38/37/53 34/30/53 27/26/53
f 46/30/54 52/37/54 37/34/54
f 52/44/55 48/28/55 34/30/55
f 41/26/56 44/34/56 51/37/56
f 44/43/57 40/29/57 48/28/57
f 39/30/58 45/38/58 159/45/58
f 45/35/59 41/26/59 160/27/59
f 74/28/60 80/44/60 114/47/60
f 80/44/61 76/28/61 117/31/61
f 69/29/62 72/43/62 79/42/62
f 72/43/63 68/29/63 76/28/63
f 67/28/64 73/42/64 56/43/64
f 73/40/65 69/29/65 54/26/65
f 60/29/66 66/43/66 77/42/66
f 66/38/67 62/30/67 75/28/67
f 55/29/68 58/43/68 65/42/68
f 58/34/69 54/26/69 62/30/69
f 53/29/70 59/40/70 120/48/70
f 59/40/71 55/29/71 123/32/71
f 33/26/72 35/35/72 163/49/72
f 35/38/73 32/30/73 164/25/73
f 67/28/74 53/29/74 104/32/74
f 81/51/74 87/62/74 150/52/74
f 91/54/73 92/66/73 140/55/73
f 90/57/72 91/65/72 139/58/72
f 88/60/71 89/62/71 145/52/71
f 87/62/70 88/60/70 144/61/70
f 85/63/61 86/51/61 143/53/61
f 84/51/60 85/63/60 142/64/60
f 82/65/59 83/57/59 136/59/59
f 81/66/58 82/54/58 135/56/58
f 143/53/25 86/51/25 83/62/25
f 84/66/23 90/57/23 134/59/23
f 140/55/21 92/66/21 89/57/21
f 61/28/21 110/31/21 123/32/21
f 110/67/21 109/73/21 124/68/21
f 109/70/21 108/74/21 125/71/21
f 101/31/23 126/32/23 60/29/23
f 100/73/23 127/68/23 126/69/23
f 99/74/23 128/71/23 127/72/23
f 111/31/58 95/47/58 70/44/58
f 112/73/58 94/82/58 95/75/58
f 113/74/58 93/83/58 94/76/58
f 95/77/59 98/32/59 68/29/59
f 94/78/59 97/68/59 98/69/59
f 93/80/59 96/71/59 97/72/59
f 126/32/72 107/77/72 63/40/72
f 127/68/72 106/78/72 107/79/72
f 128/71/72 105/80/72 106/81/72
f 107/47/73 110/31/73 61/28/73
f 106/82/73 109/73/73 110/67/73
f 105/83/73 108/74/73 109/70/73
f 113/74/74 102/71/74 138/84/74
f 112/70/74 103/72/74 102/71/74
f 111/67/74 104/69/74 103/68/74
f 122/86/71 125/71/71 133/84/71
f 121/81/71 124/72/71 125/71/71
f 120/79/71 123/69/71 124/68/71
f 102/71/70 122/86/70 132/87/70
f 103/72/70 121/81/70 122/86/70
f 104/69/70 120/79/70 121/78/70
f 116/83/61 119/74/61 131/85/61
f 115/76/61 118/70/61 119/74/61
f 114/75/61 117/67/61 118/73/61
f 99/74/60 116/83/60 130/88/60
f 100/70/60 115/76/60 116/83/60
f 101/67/60 114/75/60 115/82/60
f 131/85/25 119/74/25 96/71/25
f 119/74/25 118/70/25 97/72/25
f 118/73/25 117/67/25 98/69/25
f 86/66/25 131/55/25 136/59/25
f 137/55/60 130/56/60 85/54/60
f 130/56/61 131/55/61 86/66/61
f 138/59/70 132/58/70 88/65/70
f 132/58/71 133/59/71 89/57/71
f 129/55/74 138/59/74 87/57/74
f 108/74/21 140/85/21 133/84/21
f 137/85/23 134/84/23 128/71/23
f 129/85/58 135/88/58 93/83/58
f 135/87/59 136/84/59 96/71/59
f 134/84/72 139/87/72 105/80/72
f 139/88/73 140/85/73 108/74/73
f 155/89/25 143/92/25 148/90/25
f 149/92/60 142/94/60 154/93/60
f 142/94/61 143/92/61 155/89/61
f 150/90/70 144/96/70 156/95/70
f 144/96/71 145/90/71 157/91/71
f 141/92/74 150/90/74 162/91/74
f 151/64/73 152/53/73 92/51/73
f 146/52/72 151/61/72 91/60/72
f 147/61/59 148/52/59 83/62/59
f 141/53/58 147/64/58 82/63/58
f 149/53/23 146/52/23 90/62/23
f 92/51/21 152/53/21 145/52/21
f 153/25/74 162/27/74 25/26/74
f 156/46/71 157/27/71 26/26/71
f 162/27/70 156/46/70 28/35/70
f 154/50/61 155/25/61 47/30/61
f 161/25/60 154/50/60 49/38/60
f 47/30/25 155/25/25 160/27/25
f 163/93/73 164/89/73 152/92/73
f 158/91/72 163/95/72 151/96/72
f 159/95/59 160/91/59 148/90/59
f 153/89/58 159/93/58 147/94/58
f 161/89/23 158/91/23 146/90/23
f 152/92/21 164/89/21 157/91/21
o Cylinder.049
v -0.077821 -0.074803 -0.863408
v 0.118031 -0.074803 -0.863408
v -0.077821 -0.733216 -0.431704
v 0.118031 -0.733216 -0.431704
v -0.077821 -0.733216 0.431704
v 0.118031 -0.733216 0.431704
v -0.077821 -0.074803 0.863408
v 0.118031 -0.074803 0.863408
v -0.075269 0.887677 0.696253
v -0.075075 0.960852 0.609275
v -0.075132 0.939419 0.665514
v 0.115285 0.960852 0.609275
v 0.115479 0.887677 0.696253
v 0.115342 0.939419 0.665514
v -0.075075 0.960852 -0.609275
v -0.075269 0.887677 -0.696253
v -0.075132 0.939419 -0.665514
v 0.115479 0.887677 -0.696253
v 0.115285 0.960852 -0.609275
v 0.115342 0.939419 -0.665514
vn -0.0000 -0.5483 -0.8363
vn -0.0000 -1.0000 -0.0000
vn -0.0000 -0.5483 0.8363
vn -0.0000 1.0000 -0.0000
vn -0.0000 0.1711 -0.9853
vn 1.0000 0.0016 -0.0000
vn -0.0000 0.1711 0.9853
vn -0.0000 0.9344 0.3561
vn -0.0000 0.5108 0.8597
vn -0.0000 0.5108 -0.8597
vn -0.0000 0.9344 -0.3561
vn -1.0000 0.0027 -0.0000
vn 1.0000 -0.0000 -0.0000
vn 1.0000 0.0027 -0.0000
vn 1.0000 0.0021 -0.0032
vn 1.0000 0.0024 0.0012
vn -1.0000 0.0021 0.0032
vn -1.0000 -0.0000 -0.0000
vn -1.0000 0.0015 -0.0007
vt 0.988584 0.062696
vt 0.981557 0.039809
vt 0.986993 0.062032
vt 0.983116 0.039994
vt 0.969540 0.040404
vt 0.970917 0.040618
vt 0.963483 0.066618
vt 0.972412 0.090247
vt 0.981251 0.085484
vt 0.971072 0.088889
vt 0.983735 0.084786
vt 0.982233 0.083634
vt 0.983329 0.086315
vt 0.971284 0.088842
vt 0.964723 0.067502
vt 0.969959 0.087508
vt 0.971809 0.090277
vt 0.970478 0.088914
vt 0.971284 0.088842
vt 0.981835 0.085129
vt 0.982737 0.086683
vt 0.981251 0.085484
vt 0.983735 0.084786
vt 0.982737 0.086683
vt 0.969959 0.087508
vt 0.971072 0.088889
s 0
usemtl Colors
f 166/97/99 167/98/99 165/99/99
f 168/100/100 169/101/100 167/98/100
f 170/102/101 171/103/101 169/101/101
f 176/104/102 179/105/102 174/106/102
f 182/107/103 165/99/103 180/108/103
f 184/109/104 177/110/104 170/102/104
f 172/111/105 173/112/105 171/103/105
f 174/106/106 178/113/106 176/104/106
f 175/114/107 177/115/107 178/113/107
f 180/108/108 184/109/108 182/107/108
f 181/116/109 183/117/109 184/109/109
f 171/103/110 179/118/110 180/108/110
f 166/97/99 168/100/99 167/98/99
f 168/100/100 170/102/100 169/101/100
f 170/102/101 172/111/101 171/103/101
f 176/104/102 183/117/102 179/105/102
f 182/107/103 166/97/103 165/99/103
f 170/102/111 168/100/111 166/97/111
f 166/97/112 182/119/112 184/109/112
f 184/109/112 183/120/112 176/104/112
f 176/104/112 178/113/112 177/110/112
f 177/110/113 172/111/113 170/102/113
f 170/102/114 166/97/114 184/109/114
f 184/109/112 176/104/112 177/110/112
f 172/111/105 177/115/105 173/112/105
f 174/106/106 175/114/106 178/113/106
f 175/114/107 173/112/107 177/115/107
f 180/108/108 181/116/108 184/109/108
f 181/116/109 179/105/109 183/117/109
f 180/108/115 165/99/115 167/98/115
f 167/98/116 169/101/116 171/103/116
f 171/103/110 173/121/110 175/114/110
f 175/114/110 174/122/110 179/118/110
f 179/118/110 181/116/110 180/108/110
f 180/108/117 167/98/117 171/103/117
f 171/103/110 175/114/110 179/118/110
