# Blender 4.0.2
# www.blender.org
mtllib table.mtl
o Table
v -2.342469 0.000009 -1.897910
v -2.342469 2.473407 -0.163804
v -2.342469 0.000008 -2.407432
v -2.342469 2.473406 -0.673326
v -2.477701 0.000009 -1.897910
v -2.477701 2.473407 -0.163804
v -2.477701 0.000008 -2.407432
v -2.477701 2.473406 -0.673326
v -2.342469 0.000009 1.897913
v -2.342469 0.000008 2.407435
v -2.342469 2.473406 0.673330
v -2.342469 2.473407 0.163808
v -2.477701 0.000009 1.897913
v -2.477701 2.473407 0.163808
v -2.477701 2.473406 0.673330
v -2.477701 0.000008 2.407435
v -2.207237 2.061174 -1.128824
v -2.207237 2.061174 1.128824
v -2.207237 2.473407 -1.265923
v -2.207237 2.473407 1.265923
v -2.342468 2.061174 -1.128824
v -2.342469 2.061174 1.128824
v -2.342468 2.473407 -1.265923
v -2.342469 2.473407 1.265923
v -2.207237 0.979066 -2.458457
v -2.207237 0.979066 2.458456
v -2.207237 1.391299 -2.628011
v -2.207237 1.391299 2.628011
v -2.342469 0.979066 -2.458457
v -2.342469 0.979066 2.458456
v -2.342469 1.391299 -2.628011
v -2.342469 1.391299 2.628011
v 2.342472 0.000009 -1.897909
v 2.342472 0.000008 -2.407432
v 2.342473 2.473406 -0.673326
v 2.342473 2.473407 -0.163804
v 2.477704 0.000009 -1.897909
v 2.477704 2.473407 -0.163804
v 2.477704 2.473406 -0.673326
v 2.477704 0.000008 -2.407432
v 2.342472 0.000009 1.897913
v 2.342473 2.473407 0.163808
v 2.342473 2.473406 0.673330
v 2.342472 0.000008 2.407435
v 2.477704 0.000009 1.897913
v 2.477704 0.000008 2.407435
v 2.477704 2.473406 0.673330
v 2.477704 2.473407 0.163808
v 2.207240 2.061174 -1.128824
v 2.207240 2.473407 -1.265923
v 2.207240 2.473407 1.265923
v 2.207240 2.061174 1.128824
v 2.342472 2.061174 -1.128824
v 2.342472 2.061174 1.128824
v 2.342472 2.473407 1.265923
v 2.342472 2.473407 -1.265923
v 2.207240 0.979066 -2.458457
v 2.207240 1.391299 -2.628011
v 2.207240 1.391299 2.628011
v 2.207240 0.979066 2.458456
v 2.342472 0.979066 -2.458457
v 2.342473 0.979066 2.458456
v 2.342473 1.391299 2.628011
v 2.342472 1.391299 -2.628011
v -2.617419 1.391299 2.236586
v 2.617419 1.391299 2.236586
v -2.617419 1.391299 1.843934
v 2.617419 1.391299 1.843934
v -2.617419 1.494357 2.236586
v 2.617419 1.494357 2.236586
v -2.617419 1.494357 1.843934
v 2.617419 1.494357 1.843934
v -2.617419 1.391299 2.670462
v 2.617419 1.391299 2.670462
v -2.617419 1.391299 2.277810
v 2.617419 1.391299 2.277810
v -2.617419 1.494357 2.670462
v 2.617419 1.494357 2.670462
v -2.617419 1.494357 2.277810
v 2.617419 1.494357 2.277810
v -2.617419 1.391299 -2.236586
v -2.617419 1.391299 -1.843934
v 2.617419 1.391299 -1.843934
v 2.617419 1.391299 -2.236586
v -2.617419 1.494357 -2.236586
v 2.617419 1.494357 -2.236586
v 2.617419 1.494357 -1.843934
v -2.617419 1.494357 -1.843934
v -2.617419 1.391299 -2.670462
v -2.617419 1.391299 -2.277810
v 2.617419 1.391299 -2.277810
v 2.617419 1.391299 -2.670462
v -2.617419 1.494357 -2.670462
v 2.617419 1.494357 -2.670462
v 2.617419 1.494357 -2.277810
v -2.617419 1.494357 -2.277810
v -2.617419 2.473407 -0.888364
v 2.617419 2.473407 -0.888364
v -2.617419 2.473407 -1.281016
v 2.617419 2.473407 -1.281016
v -2.617419 2.576466 -0.888364
v 2.617419 2.576466 -0.888364
v -2.617419 2.576466 -1.281016
v 2.617419 2.576466 -1.281016
v -2.617419 2.473407 -0.454488
v 2.617419 2.473407 -0.454488
v -2.617419 2.473407 -0.847140
v 2.617419 2.473407 -0.847140
v -2.617419 2.576466 -0.454488
v 2.617419 2.576466 -0.454488
v -2.617419 2.576466 -0.847140
v 2.617419 2.576466 -0.847140
v -2.617419 2.473407 -0.020612
v 2.617419 2.473407 -0.020612
v -2.617419 2.473407 -0.413264
v 2.617419 2.473407 -0.413264
v -2.617419 2.576466 -0.020612
v 2.617419 2.576466 -0.020612
v -2.617419 2.576466 -0.413264
v 2.617419 2.576466 -0.413264
v -2.617419 2.473407 0.413264
v 2.617419 2.473407 0.413264
v -2.617419 2.473407 0.020612
v 2.617419 2.473407 0.020612
v -2.617419 2.576466 0.413264
v 2.617419 2.576466 0.413264
v -2.617419 2.576466 0.020612
v 2.617419 2.576466 0.020612
v -2.617419 2.473407 0.847140
v 2.617419 2.473407 0.847140
v -2.617419 2.473407 0.454488
v 2.617419 2.473407 0.454488
v -2.617419 2.576466 0.847140
v 2.617419 2.576466 0.847140
v -2.617419 2.576466 0.454488
v 2.617419 2.576466 0.454488
v -2.617419 2.473407 1.281016
v 2.617419 2.473407 1.281016
v -2.617419 2.473407 0.888364
v 2.617419 2.473407 0.888364
v -2.617419 2.576466 1.281016
v 2.617419 2.576466 1.281016
v -2.617419 2.576466 0.888364
v 2.617419 2.576466 0.888364
v -2.207237 0.979066 -0.051529
v 2.207240 0.979066 -0.051529
v -2.207237 1.391299 -0.051529
v 2.207240 1.391299 -0.051529
v -2.207237 0.979066 0.051529
v 2.207240 0.979066 0.051529
v -2.207237 1.391299 0.051529
v 2.207240 1.391299 0.051529
vn 0.6165 -0.6985 0.3634
vn 0.6165 0.6985 -0.3634
vn 0.5518 0.3849 0.7398
vn -0.6165 -0.6985 0.3634
vn -0.6165 0.6985 -0.3634
vn -0.5518 -0.3849 -0.7398
vn -0.5518 0.3849 0.7398
vn 0.5518 -0.3849 -0.7398
vn 0.6165 -0.6985 -0.3634
vn 0.6165 0.6985 0.3634
vn 0.5518 -0.3849 0.7398
vn -0.6165 -0.6985 -0.3634
vn -0.6165 0.6985 0.3634
vn -0.5518 0.3849 -0.7398
vn 0.5518 0.3849 -0.7398
vn -0.5518 -0.3849 0.7398
vn 0.5623 0.4837 -0.6707
vn 0.5961 -0.6512 0.4697
vn 0.5961 -0.6512 -0.4697
vn -0.5961 -0.6512 0.4697
vn -0.5623 0.4837 -0.6707
vn -0.5961 -0.6512 -0.4697
vn 0.5623 0.4837 0.6707
vn -0.5623 0.4837 0.6707
vn 0.5596 0.4613 -0.6885
vn 0.6007 -0.6642 0.4450
vn 0.6007 -0.6642 -0.4450
vn -0.6007 -0.6642 0.4450
vn -0.5596 0.4613 -0.6885
vn -0.6007 -0.6642 -0.4450
vn 0.5596 0.4613 0.6885
vn -0.5596 0.4613 0.6885
vn -0.5774 -0.5774 -0.5773
vn 0.5774 -0.5774 0.5773
vn -0.5774 -0.5774 0.5774
vn 0.5774 0.5774 0.5774
vn -0.5774 0.5774 -0.5774
vn -0.5774 0.5774 0.5773
vn 0.5774 -0.5774 -0.5774
vn 0.5774 0.5774 -0.5773
vn 0.5774 -0.5774 -0.5773
vn -0.5774 -0.5774 0.5773
vn -0.5774 -0.5774 -0.5774
vn -0.5774 0.5774 0.5774
vn 0.5774 0.5774 -0.5774
vn -0.5774 0.5774 -0.5773
vn 0.5774 -0.5774 0.5774
vn 0.5774 0.5774 0.5773
vn -0.0000 0.7071 -0.7071
vn -0.0000 -0.7071 -0.7071
vn -0.0000 -0.7071 0.7071
vn -0.0000 0.7071 0.7071
vt 0.401784 0.002025
vt 0.041827 0.057070
vt 0.003235 0.002026
vt 0.401784 0.129958
vt 0.041827 0.074913
vt 0.440376 0.074913
vt 0.003235 0.147800
vt 0.401784 0.147800
vt 0.840772 0.229475
vt 0.648276 0.280566
vt 0.648276 0.229475
vt 0.440376 0.057070
vt 0.499442 0.205371
vt 0.448352 0.012874
vt 0.499443 0.012874
vt 0.401641 0.296756
vt 0.041684 0.241711
vt 0.440232 0.241711
vt 0.401641 0.168823
vt 0.041684 0.223868
vt 0.003092 0.168823
vt 0.003092 0.150981
vt 0.401641 0.150981
vt 0.450824 0.235868
vt 0.643321 0.286959
vt 0.450824 0.286959
vt 0.448352 0.205371
vt 0.849567 0.390993
vt 0.903647 0.073084
vt 0.903647 0.372793
vt 0.921387 0.073084
vt 0.975467 0.390993
vt 0.921387 0.372793
vt 0.841918 0.004979
vt 0.678527 0.055780
vt 0.678527 0.004979
vt 0.993208 0.390993
vt 0.975467 0.054883
vt 0.993208 0.054883
vt 0.678526 0.055778
vt 0.841918 0.004977
vt 0.841918 0.055778
vt 0.781321 0.994996
vt 0.835284 0.318400
vt 0.835284 0.972443
vt 0.709656 0.318400
vt 0.763619 0.994997
vt 0.709656 0.972443
vt 0.691954 0.318400
vt 0.691953 0.972443
vt 0.673793 0.065399
vt 0.506319 0.116090
vt 0.506319 0.065399
vt 0.781321 0.295846
vt 0.763619 0.295846
vt 0.506318 0.116086
vt 0.673792 0.065396
vt 0.673792 0.116086
vt 0.401642 0.296755
vt 0.041684 0.241710
vt 0.440234 0.241710
vt 0.041683 0.223868
vt 0.003091 0.168824
vt 0.003090 0.150981
vt 0.041829 0.057070
vt 0.003237 0.002026
vt 0.401787 0.129958
vt 0.041830 0.074913
vt 0.440377 0.074913
vt 0.003240 0.147801
vt 0.401787 0.147801
vt 0.440377 0.057070
vt 0.849566 0.054883
vt 0.678785 0.065362
vt 0.842176 0.116163
vt 0.678785 0.116163
vt 0.975467 0.390994
vt 0.678785 0.065363
vt 0.835284 0.972444
vt 0.709656 0.972444
vt 0.691954 0.972444
vt 0.507376 0.004457
vt 0.674850 0.055148
vt 0.507376 0.055148
vt 0.763619 0.994998
vt 0.781321 0.994998
vt 0.506318 0.065399
vt 0.673793 0.116089
vt 0.506318 0.116089
vt 0.551021 0.305116
vt 0.602827 0.995791
vt 0.602826 0.305116
vt 0.616424 0.995791
vt 0.668229 0.305116
vt 0.616424 0.305116
vt 0.664211 0.166164
vt 0.515867 0.127228
vt 0.515867 0.166164
vt 0.681827 0.305116
vt 0.668230 0.995791
vt 0.681827 0.995791
vt 0.515866 0.127230
vt 0.664211 0.127229
vt 0.415756 0.305277
vt 0.467562 0.995953
vt 0.467562 0.305277
vt 0.481159 0.995953
vt 0.532965 0.305277
vt 0.481159 0.305277
vt 0.827384 0.168141
vt 0.679039 0.129205
vt 0.679039 0.168141
vt 0.546562 0.305277
vt 0.532965 0.995953
vt 0.546562 0.995953
vt 0.679039 0.129208
vt 0.827384 0.129208
vt 0.602826 0.995791
vt 0.551020 0.305116
vt 0.616423 0.995791
vt 0.616423 0.305116
vt 0.515866 0.127229
vt 0.515866 0.166164
vt 0.668229 0.995791
vt 0.664211 0.166165
vt 0.415756 0.305278
vt 0.467562 0.305278
vt 0.532965 0.305278
vt 0.481159 0.305278
vt 0.546562 0.305278
vt 0.827384 0.168143
vt 0.081626 0.306558
vt 0.133433 0.997232
vt 0.133433 0.306558
vt 0.016223 0.997232
vt 0.068029 0.306558
vt 0.016223 0.306558
vt 0.002626 0.997232
vt 0.002626 0.306558
vt 0.662567 0.214417
vt 0.514223 0.175481
vt 0.514223 0.214417
vt 0.068029 0.997232
vt 0.081627 0.997232
vt 0.514223 0.175480
vt 0.662567 0.175480
vt 0.219774 0.306097
vt 0.271580 0.996773
vt 0.271580 0.306097
vt 0.154371 0.996773
vt 0.206177 0.306097
vt 0.154371 0.306097
vt 0.140774 0.996773
vt 0.140774 0.306097
vt 0.825842 0.216132
vt 0.677498 0.177198
vt 0.677498 0.216132
vt 0.206177 0.996773
vt 0.219774 0.996773
vt 0.677498 0.177196
vt 0.825842 0.177196
vt 0.357902 0.305711
vt 0.409707 0.996387
vt 0.409707 0.305711
vt 0.292498 0.996387
vt 0.344304 0.305711
vt 0.292498 0.305711
vt 0.278901 0.996387
vt 0.278901 0.305711
vt 0.996096 0.044082
vt 0.847752 0.005146
vt 0.847752 0.044082
vt 0.344304 0.996387
vt 0.357902 0.996387
vt 0.847752 0.005147
vt 0.996096 0.005147
vt 0.409708 0.305712
vt 0.357901 0.996387
vt 0.357901 0.305712
vt 0.292498 0.305712
vt 0.344304 0.305712
vt 0.847753 0.044082
vt 0.278901 0.305712
vt 0.996096 0.005148
vt 0.847753 0.044084
vt 0.847753 0.005148
vt 0.271580 0.306098
vt 0.219774 0.306098
vt 0.154371 0.306098
vt 0.206177 0.306098
vt 0.825842 0.177198
vt 0.140774 0.306098
vt 0.825843 0.177197
vt 0.677498 0.216134
vt 0.677498 0.177197
vt 0.133432 0.306558
vt 0.081626 0.997233
vt 0.068029 0.997233
vt 0.662567 0.175482
vt 0.016223 0.997233
vt 0.002626 0.997233
vt 0.514222 0.214418
vt 0.514222 0.175482
vt 0.922143 0.408404
vt 0.867754 0.990844
vt 0.867754 0.408404
vt 0.990130 0.990844
vt 0.935741 0.408404
vt 0.990130 0.408404
vt 0.854157 0.408404
vt 0.935741 0.990844
vt 0.922143 0.990844
vt 0.003235 0.129958
vt 0.840772 0.280566
vt 0.003092 0.296756
vt 0.440232 0.223868
vt 0.643321 0.235868
vt 0.841918 0.055780
vt 0.678526 0.004977
vt 0.673793 0.116090
vt 0.506318 0.065396
vt 0.003092 0.296755
vt 0.440233 0.223868
vt 0.003239 0.129958
vt 0.849567 0.390994
vt 0.842176 0.065362
vt 0.842176 0.065363
vt 0.674850 0.004457
vt 0.551021 0.995791
vt 0.664211 0.127228
vt 0.415756 0.995953
vt 0.827384 0.129205
vt 0.551020 0.995791
vt 0.515866 0.166165
vt 0.679039 0.168143
vt 0.662567 0.175481
vt 0.996096 0.005146
vt 0.409708 0.996387
vt 0.847753 0.005147
vt 0.996096 0.044084
vt 0.825843 0.216134
vt 0.133432 0.997233
vt 0.514223 0.175482
vt 0.662567 0.214418
vt 0.854157 0.990844
s 1
usemtl Picnic_Table
f 1/1/1 4/2/2 2/3/3
f 5/4/4 8/5/5 7/6/6
f 2/7/3 5/4/4 1/8/1
f 4/9/2 6/10/7 2/11/3
f 3/12/8 8/5/5 4/2/2
f 1/13/1 7/14/6 3/15/8
f 9/16/9 11/17/10 10/18/11
f 13/19/12 15/20/13 14/21/14
f 13/19/12 12/22/15 9/23/9
f 14/24/14 11/25/10 12/26/15
f 15/20/13 10/18/11 11/17/10
f 16/15/16 9/27/9 10/14/11
f 19/28/17 18/29/18 17/30/19
f 22/31/20 23/32/21 21/33/22
f 18/29/18 21/33/22 17/30/19
f 20/34/23 22/35/20 18/36/18
f 19/37/17 24/38/24 20/39/23
f 17/40/19 23/41/21 19/42/17
f 27/43/25 26/44/26 25/45/27
f 30/46/28 31/47/29 29/48/30
f 26/49/26 29/48/30 25/50/27
f 28/51/31 30/52/28 26/53/26
f 28/54/31 31/47/29 32/55/32
f 25/56/27 31/57/29 27/58/25
f 33/59/4 35/60/5 34/61/6
f 37/19/1 39/62/2 38/63/3
f 37/19/1 36/64/7 33/23/4
f 38/24/3 35/25/5 36/26/7
f 39/62/2 34/61/6 35/60/5
f 40/15/8 33/27/4 34/14/6
f 41/1/12 43/65/13 42/66/14
f 45/67/9 47/68/10 46/69/11
f 42/70/14 45/67/9 41/71/12
f 43/9/13 48/10/15 42/11/14
f 44/72/16 47/68/10 43/65/13
f 41/13/12 46/14/11 44/15/16
f 52/30/20 50/73/21 49/29/22
f 56/38/17 54/33/18 53/31/19
f 53/31/19 52/30/20 49/29/22
f 54/74/18 51/75/24 52/76/20
f 55/77/23 50/39/21 51/37/24
f 56/78/17 49/75/22 50/76/21
f 60/79/28 58/54/29 57/44/30
f 64/55/25 62/80/26 61/46/27
f 61/46/27 60/81/28 57/49/30
f 62/82/26 59/83/32 60/84/28
f 63/85/31 58/54/29 59/86/32
f 64/87/25 57/88/30 58/89/29
f 67/90/33 66/91/34 65/92/35
f 70/93/36 71/94/37 69/95/38
f 66/91/34 69/95/38 65/92/35
f 68/96/39 70/97/36 66/98/34
f 67/99/33 72/100/40 68/101/39
f 65/102/35 71/96/37 67/103/33
f 75/104/33 74/105/34 73/106/35
f 78/107/36 79/108/37 77/109/38
f 74/105/34 77/109/38 73/106/35
f 76/110/39 78/111/36 74/112/34
f 75/113/33 80/114/40 76/115/39
f 73/116/35 79/110/37 75/117/33
f 84/118/41 82/119/42 81/92/43
f 88/94/44 86/120/45 85/121/46
f 85/121/46 84/118/41 81/92/43
f 86/122/45 83/96/47 84/123/41
f 87/124/48 82/99/42 83/101/47
f 88/125/44 81/122/43 82/103/42
f 92/105/41 90/126/42 89/127/43
f 96/128/44 94/107/45 93/129/46
f 93/129/46 92/105/41 89/127/43
f 94/111/45 91/110/47 92/112/41
f 95/114/48 90/130/42 91/115/47
f 96/131/44 89/116/43 90/117/42
f 99/132/33 98/133/34 97/134/35
f 102/135/36 103/136/37 101/137/38
f 98/138/34 101/137/38 97/139/35
f 100/140/39 102/141/36 98/142/34
f 99/132/33 104/143/40 100/144/39
f 97/145/35 103/140/37 99/146/33
f 107/147/33 106/148/34 105/149/35
f 110/150/36 111/151/37 109/152/38
f 106/153/34 109/152/38 105/154/35
f 108/155/39 110/156/36 106/157/34
f 107/147/33 112/158/40 108/159/39
f 105/160/35 111/155/37 107/161/33
f 115/162/33 114/163/34 113/164/35
f 118/165/36 119/166/37 117/167/38
f 114/168/34 117/167/38 113/169/35
f 116/170/39 118/171/36 114/172/34
f 115/162/33 120/173/40 116/174/39
f 113/175/35 119/170/37 115/176/33
f 123/177/33 122/178/34 121/179/35
f 126/173/36 127/180/37 125/181/38
f 122/178/34 125/181/38 121/179/35
f 124/182/39 126/176/36 122/170/34
f 123/183/33 128/165/40 124/168/39
f 121/184/35 127/185/37 123/186/33
f 131/187/33 130/159/34 129/188/35
f 134/158/36 135/189/37 133/190/38
f 130/159/34 133/190/38 129/188/35
f 132/157/39 134/191/36 130/155/34
f 131/192/33 136/150/40 132/153/39
f 129/193/35 135/194/37 131/195/33
f 139/196/33 138/197/34 137/132/35
f 142/198/36 143/137/37 141/136/38
f 138/197/34 141/136/38 137/132/35
f 140/142/39 142/199/36 138/140/34
f 139/139/33 144/200/40 140/201/39
f 137/199/35 143/202/37 139/203/33
f 147/204/49 146/205/50 145/206/50
f 150/207/51 151/208/52 149/209/51
f 146/205/50 149/210/51 145/206/50
f 147/204/49 152/211/52 148/212/49
f 1/1/1 3/12/8 4/2/2
f 5/4/4 6/213/7 8/5/5
f 2/7/3 6/213/7 5/4/4
f 4/9/2 8/214/5 6/10/7
f 3/12/8 7/6/6 8/5/5
f 1/13/1 5/27/4 7/14/6
f 9/16/9 12/215/15 11/17/10
f 13/19/12 16/216/16 15/20/13
f 13/19/12 14/21/14 12/22/15
f 14/24/14 15/217/13 11/25/10
f 15/20/13 16/216/16 10/18/11
f 16/15/16 13/13/12 9/27/9
f 19/28/17 20/73/23 18/29/18
f 22/31/20 24/38/24 23/32/21
f 18/29/18 22/31/20 21/33/22
f 20/34/23 24/218/24 22/35/20
f 19/37/17 23/32/21 24/38/24
f 17/40/19 21/219/22 23/41/21
f 27/43/25 28/54/31 26/44/26
f 30/46/28 32/55/32 31/47/29
f 26/49/26 30/46/28 29/48/30
f 28/51/31 32/220/32 30/52/28
f 28/54/31 27/43/25 31/47/29
f 25/56/27 29/221/30 31/57/29
f 33/59/4 36/222/7 35/60/5
f 37/19/1 40/223/8 39/62/2
f 37/19/1 38/63/3 36/64/7
f 38/24/3 39/217/2 35/25/5
f 39/62/2 40/223/8 34/61/6
f 40/15/8 37/13/1 33/27/4
f 41/1/12 44/72/16 43/65/13
f 45/67/9 48/224/15 47/68/10
f 42/70/14 48/224/15 45/67/9
f 43/9/13 47/214/10 48/10/15
f 44/72/16 46/69/11 47/68/10
f 41/13/12 45/27/9 46/14/11
f 52/30/20 51/225/24 50/73/21
f 56/38/17 55/77/23 54/33/18
f 53/31/19 54/33/18 52/30/20
f 54/74/18 55/226/23 51/75/24
f 55/77/23 56/38/17 50/39/21
f 56/78/17 53/227/19 49/75/22
f 60/79/28 59/86/32 58/54/29
f 64/55/25 63/85/31 62/80/26
f 61/46/27 62/80/26 60/81/28
f 62/82/26 63/228/31 59/83/32
f 63/85/31 64/55/25 58/54/29
f 64/87/25 61/51/27 57/88/30
f 67/90/33 68/229/39 66/91/34
f 70/93/36 72/100/40 71/94/37
f 66/91/34 70/93/36 69/95/38
f 68/96/39 72/230/40 70/97/36
f 67/99/33 71/94/37 72/100/40
f 65/102/35 69/123/38 71/96/37
f 75/104/33 76/231/39 74/105/34
f 78/107/36 80/114/40 79/108/37
f 74/105/34 78/107/36 77/109/38
f 76/110/39 80/232/40 78/111/36
f 75/113/33 79/108/37 80/114/40
f 73/116/35 77/112/38 79/110/37
f 84/118/41 83/233/47 82/119/42
f 88/94/44 87/124/48 86/120/45
f 85/121/46 86/120/45 84/118/41
f 86/122/45 87/103/48 83/96/47
f 87/124/48 88/94/44 82/99/42
f 88/125/44 85/234/46 81/122/43
f 92/105/41 91/231/47 90/126/42
f 96/128/44 95/114/48 94/107/45
f 93/129/46 94/107/45 92/105/41
f 94/111/45 95/232/48 91/110/47
f 95/114/48 96/128/44 90/130/42
f 96/131/44 93/235/46 89/116/43
f 99/132/33 100/144/39 98/133/34
f 102/135/36 104/143/40 103/136/37
f 98/138/34 102/135/36 101/137/38
f 100/140/39 104/236/40 102/141/36
f 99/132/33 103/136/37 104/143/40
f 97/145/35 101/142/38 103/140/37
f 107/147/33 108/159/39 106/148/34
f 110/150/36 112/158/40 111/151/37
f 106/153/34 110/150/36 109/152/38
f 108/155/39 112/191/40 110/156/36
f 107/147/33 111/151/37 112/158/40
f 105/160/35 109/157/38 111/155/37
f 115/162/33 116/174/39 114/163/34
f 118/165/36 120/173/40 119/166/37
f 114/168/34 118/165/36 117/167/38
f 116/170/39 120/237/40 118/171/36
f 115/162/33 119/166/37 120/173/40
f 113/175/35 117/172/38 119/170/37
f 123/177/33 124/238/39 122/178/34
f 126/173/36 128/165/40 127/180/37
f 122/178/34 126/173/36 125/181/38
f 124/182/39 128/239/40 126/176/36
f 123/183/33 127/180/37 128/165/40
f 121/184/35 125/240/38 127/185/37
f 131/187/33 132/148/39 130/159/34
f 134/158/36 136/150/40 135/189/37
f 130/159/34 134/158/36 133/190/38
f 132/157/39 136/156/40 134/191/36
f 131/192/33 135/189/37 136/150/40
f 129/193/35 133/241/38 135/194/37
f 139/196/33 140/242/39 138/197/34
f 142/198/36 144/200/40 143/137/37
f 138/197/34 142/198/36 141/136/38
f 140/142/39 144/243/40 142/199/36
f 139/139/33 143/137/37 144/200/40
f 137/199/35 141/244/38 143/202/37
f 147/204/49 148/212/49 146/205/50
f 150/207/51 152/211/52 151/208/52
f 146/205/50 150/245/51 149/210/51
f 147/204/49 151/208/52 152/211/52
