# Blender 4.0.2
# www.blender.org
mtllib arrow.mtl
o Cylinder.120
v -0.070397 0.000000 -0.007377
v 0.070397 -0.000000 -0.007377
v -0.070397 -0.005216 -0.005216
v 0.070397 -0.005216 -0.005216
v -0.070397 -0.007377 0.000000
v 0.070397 -0.007377 0.000000
v -0.070397 -0.005216 0.005216
v 0.070397 -0.005216 0.005216
v -0.070397 0.000000 0.007377
v 0.070397 -0.000000 0.007377
v -0.070397 0.005216 0.005216
v 0.070397 0.005216 0.005216
v -0.070397 0.007377 0.000000
v 0.070397 0.007377 0.000000
v -0.070397 0.005216 -0.005216
v 0.070397 0.005216 -0.005216
vn -0.0000 -0.3827 -0.9239
vn -0.0000 -0.9239 -0.3827
vn -0.0000 -0.9239 0.3827
vn -0.0000 -0.3827 0.9239
vn -0.0000 0.3827 0.9239
vn -0.0000 0.9239 0.3827
vn 1.0000 -0.0000 -0.0000
vn -0.0000 0.9239 -0.3827
vn -0.0000 0.3827 -0.9239
vn -1.0000 -0.0000 -0.0000
vt 0.928112 0.611716
vt 0.900444 0.610376
vt 0.900531 0.612561
vt 0.928148 0.609417
vt 0.900161 0.609160
vt 0.928346 0.608123
vt 0.899839 0.609660
vt 0.928599 0.608627
vt 0.899671 0.611655
vt 0.928756 0.610714
vt 0.899767 0.613940
vt 0.928716 0.613124
vt 0.900063 0.615105
vt 0.928506 0.614363
vt 0.900378 0.614505
vt 0.928257 0.613748
s 0
usemtl Colors
f 2/1/1 3/2/1 1/3/1
f 4/4/2 5/5/2 3/2/2
f 6/6/3 7/7/3 5/5/3
f 8/8/4 9/9/4 7/7/4
f 10/10/5 11/11/5 9/9/5
f 12/12/6 13/13/6 11/11/6
f 14/14/7 10/10/7 6/6/7
f 14/14/8 15/15/8 13/13/8
f 16/16/9 1/3/9 15/15/9
f 7/7/10 11/11/10 15/15/10
f 2/1/1 4/4/1 3/2/1
f 4/4/2 6/6/2 5/5/2
f 6/6/3 8/8/3 7/7/3
f 8/8/4 10/10/4 9/9/4
f 10/10/5 12/12/5 11/11/5
f 12/12/6 14/14/6 13/13/6
f 6/6/7 4/4/7 2/1/7
f 2/1/7 16/16/7 14/14/7
f 14/14/7 12/12/7 10/10/7
f 10/10/7 8/8/7 6/6/7
f 6/6/7 2/1/7 14/14/7
f 14/14/8 16/16/8 15/15/8
f 16/16/9 2/1/9 1/3/9
f 15/15/10 1/3/10 3/2/10
f 3/2/10 5/5/10 7/7/10
f 7/7/10 9/9/10 11/11/10
f 11/11/10 13/13/10 15/15/10
f 15/15/10 3/2/10 7/7/10
o Cone
v 0.063807 0.000000 -0.020349
v 0.063807 -0.014389 -0.014389
v 0.063807 -0.020349 0.000000
v 0.063807 -0.014389 0.014389
v 0.063807 0.000000 0.020349
v 0.063807 0.014389 0.014389
v 0.063807 0.020349 0.000000
v 0.063807 0.014389 -0.014389
v 0.104505 -0.000000 0.000000
vn 0.4194 -0.3474 -0.8387
vn 0.4194 -0.8387 -0.3474
vn 0.4194 -0.8387 0.3474
vn 0.4194 -0.3474 0.8387
vn 0.4194 0.3474 0.8387
vn 0.4194 0.8387 0.3474
vn -1.0000 -0.0000 -0.0000
vn 0.4194 0.8387 -0.3474
vn 0.4194 0.3474 -0.8387
vt 0.966523 0.599232
vt 0.985479 0.596108
vt 0.966667 0.586991
vt 0.967583 0.579588
vt 0.968846 0.581824
vt 0.969684 0.593668
vt 0.969476 0.607609
vt 0.968396 0.614171
vt 0.967195 0.610240
s 0
usemtl Colors
f 17/17/11 25/18/11 18/19/11
f 18/19/12 25/18/12 19/20/12
f 19/20/13 25/18/13 20/21/13
f 20/21/14 25/18/14 21/22/14
f 21/22/15 25/18/15 22/23/15
f 22/23/16 25/18/16 23/24/16
f 20/21/17 22/23/17 24/25/17
f 23/24/18 25/18/18 24/25/18
f 24/25/19 25/18/19 17/17/19
f 24/25/17 17/17/17 18/19/17
f 18/19/17 19/20/17 20/21/17
f 20/21/17 21/22/17 22/23/17
f 22/23/17 23/24/17 24/25/17
f 24/25/17 18/19/17 20/21/17
o Cube.213
v -0.077627 0.003378 0.003132
v -0.084090 0.019554 0.003132
v -0.077627 0.003378 -0.003132
v -0.084090 0.019554 -0.003132
v -0.038949 0.003378 0.003132
v -0.049060 0.014128 0.003132
v -0.038949 0.003378 -0.003132
v -0.049060 0.014128 -0.003132
v -0.077627 -0.003378 0.003132
v -0.084090 -0.019554 0.003132
v -0.077627 -0.003378 -0.003132
v -0.084090 -0.019554 -0.003132
v -0.038949 -0.003378 0.003132
v -0.049060 -0.014128 0.003132
v -0.038949 -0.003378 -0.003132
v -0.049060 -0.014128 -0.003132
vn -0.9286 -0.3711 -0.0000
vn -0.0000 -0.0000 -1.0000
vn 0.7285 0.6851 -0.0000
vn -0.0000 -0.0000 1.0000
vn -0.0000 -1.0000 -0.0000
vn 0.1531 0.9882 -0.0000
vn -0.9286 0.3711 -0.0000
vn 0.7285 -0.6851 -0.0000
vn -0.0000 1.0000 -0.0000
vn 0.1531 -0.9882 -0.0000
vt 0.955901 0.636308
vt 0.959736 0.623998
vt 0.959373 0.623066
vt 0.970140 0.632711
vt 0.973711 0.625214
vt 0.974124 0.624421
vt 0.970372 0.632300
vt 0.956482 0.636525
vt 0.959969 0.619004
vt 0.957632 0.605350
vt 0.959626 0.617801
vt 0.970460 0.612929
vt 0.958074 0.607186
vt 0.974148 0.619551
vt 0.973740 0.620576
vt 0.970695 0.611504
s 0
usemtl Colors
f 27/26/20 28/27/20 26/28/20
f 28/27/21 33/29/21 32/30/21
f 33/29/22 30/31/22 32/30/22
f 31/32/23 26/28/23 30/31/23
f 32/30/24 26/28/24 28/27/24
f 29/33/25 31/32/25 33/29/25
f 36/34/26 35/35/26 34/36/26
f 36/34/21 41/37/21 37/38/21
f 38/39/27 41/37/27 40/40/27
f 34/36/23 39/41/23 38/39/23
f 34/36/28 40/40/28 36/34/28
f 39/41/29 37/38/29 41/37/29
f 27/26/20 29/33/20 28/27/20
f 28/27/21 29/33/21 33/29/21
f 33/29/22 31/32/22 30/31/22
f 31/32/23 27/26/23 26/28/23
f 32/30/24 30/31/24 26/28/24
f 29/33/25 27/26/25 31/32/25
f 36/34/26 37/38/26 35/35/26
f 36/34/21 40/40/21 41/37/21
f 38/39/27 39/41/27 41/37/27
f 34/36/23 35/35/23 39/41/23
f 34/36/28 38/39/28 40/40/28
f 39/41/29 35/35/29 37/38/29
o Cone.001
v 0.055206 0.000000 -0.011865
v 0.055206 -0.008390 -0.008390
v 0.055206 -0.011865 0.000000
v 0.055206 -0.008390 0.008390
v 0.055206 0.000000 0.011865
v 0.055206 0.008390 0.008390
v 0.055206 0.011865 0.000000
v 0.055206 0.008390 -0.008390
v 0.078936 -0.000000 0.000000
vn 0.4194 -0.3474 -0.8387
vn 0.4194 -0.8387 -0.3474
vn 0.4194 -0.8387 0.3474
vn 0.4194 -0.3474 0.8387
vn 0.4194 0.3474 0.8387
vn 0.4194 0.8387 0.3474
vn -1.0000 -0.0000 -0.0000
vn 0.4194 0.8387 -0.3474
vn 0.4194 0.3474 -0.8387
vt 0.973522 0.393249
vt 0.984799 0.391314
vt 0.973590 0.385624
vt 0.974060 0.381225
vt 0.974690 0.382812
vt 0.975102 0.389894
vt 0.975016 0.398117
vt 0.974497 0.402220
vt 0.973884 0.400036
s 0
usemtl Colors
f 42/42/30 50/43/30 43/44/30
f 43/44/31 50/43/31 44/45/31
f 44/45/32 50/43/32 45/46/32
f 45/46/33 50/43/33 46/47/33
f 46/47/34 50/43/34 47/48/34
f 47/48/35 50/43/35 48/49/35
f 45/46/36 47/48/36 49/50/36
f 48/49/37 50/43/37 49/50/37
f 49/50/38 50/43/38 42/42/38
f 49/50/36 42/42/36 43/44/36
f 43/44/36 44/45/36 45/46/36
f 45/46/36 46/47/36 47/48/36
f 47/48/36 48/49/36 49/50/36
f 49/50/36 43/44/36 45/46/36
o Cube.214
v -0.077627 -0.003132 0.003378
v -0.084090 -0.003132 0.019554
v -0.077627 0.003132 0.003378
v -0.084090 0.003132 0.019554
v -0.038949 -0.003132 0.003378
v -0.049060 -0.003132 0.014128
v -0.038949 0.003132 0.003378
v -0.049060 0.003132 0.014128
v -0.077627 -0.003132 -0.003378
v -0.084090 -0.003132 -0.019554
v -0.077627 0.003132 -0.003378
v -0.084090 0.003132 -0.019554
v -0.038949 -0.003132 -0.003378
v -0.049060 -0.003132 -0.014128
v -0.038949 0.003132 -0.003378
v -0.049060 0.003132 -0.014128
vn -0.9286 -0.0000 -0.3711
vn -0.0000 1.0000 -0.0000
vn 0.7285 -0.0000 0.6851
vn -0.0000 -1.0000 -0.0000
vn -0.0000 -0.0000 -1.0000
vn 0.1531 -0.0000 0.9882
vn -0.9286 -0.0000 0.3711
vn 0.7285 -0.0000 -0.6851
vn -0.0000 -0.0000 1.0000
vn 0.1531 -0.0000 -0.9882
vt 0.956793 0.601863
vt 0.961819 0.613263
vt 0.962111 0.607184
vt 0.976250 0.612473
vt 0.980178 0.614973
vt 0.980206 0.609350
vt 0.976339 0.606184
vt 0.956352 0.609047
vt 0.962304 0.614525
vt 0.960755 0.611676
vt 0.962572 0.608783
vt 0.974923 0.617216
vt 0.960495 0.616804
vt 0.979659 0.610713
vt 0.979626 0.616046
vt 0.975009 0.612200
s 0
usemtl Colors
f 52/51/39 53/52/39 51/53/39
f 53/52/40 58/54/40 57/55/40
f 58/54/41 55/56/41 57/55/41
f 56/57/42 51/53/42 55/56/42
f 57/55/43 51/53/43 53/52/43
f 54/58/44 56/57/44 58/54/44
f 61/59/45 60/60/45 59/61/45
f 61/59/40 66/62/40 62/63/40
f 63/64/46 66/62/46 65/65/46
f 59/61/42 64/66/42 63/64/42
f 59/61/47 65/65/47 61/59/47
f 64/66/48 62/63/48 66/62/48
f 52/51/39 54/58/39 53/52/39
f 53/52/40 54/58/40 58/54/40
f 58/54/41 56/57/41 55/56/41
f 56/57/42 52/51/42 51/53/42
f 57/55/43 55/56/43 51/53/43
f 54/58/44 52/51/44 56/57/44
f 61/59/45 62/63/45 60/60/45
f 61/59/40 65/65/40 66/62/40
f 63/64/46 64/66/46 66/62/46
f 59/61/42 60/60/42 64/66/42
f 59/61/47 63/64/47 65/65/47
f 64/66/48 60/60/48 62/63/48
