# Blender 4.0.2
# www.blender.org
mtllib ChestFerme.mtl
o Cube.282
v -0.699989 0.064969 0.528282
v -0.758045 0.735205 0.572098
v -0.699989 0.064969 -0.528290
v -0.758045 0.735205 -0.572105
v 0.699982 0.064969 0.528282
v 0.758038 0.735205 0.572098
v 0.699982 0.064969 -0.528290
v 0.758038 0.735205 -0.572105
v -0.871425 0.066699 0.422165
v -0.943699 0.733331 0.457180
v -0.943699 0.733331 -0.457188
v -0.871425 0.066699 -0.422173
v 0.871416 0.066699 -0.422173
v 0.943691 0.733331 -0.457188
v 0.943691 0.733331 0.457180
v 0.871416 0.066699 0.422165
v -0.748063 -0.017265 -0.453503
v -0.748063 -0.017265 0.453495
v -0.749018 0.824260 0.406599
v -0.749018 0.824260 -0.406607
v 0.749010 0.824260 -0.406607
v 0.748055 -0.017265 -0.453503
v 0.748055 -0.017265 0.453495
v 0.749010 0.824260 0.406599
v -0.871425 -0.017265 -0.528290
v -0.871425 -0.017265 0.528282
v 0.871416 -0.017265 -0.528290
v 0.871416 -0.017265 0.528282
v -0.699989 0.064969 0.462029
v -0.758045 0.735205 0.500347
v -0.758045 0.735205 -0.500355
v -0.699989 0.064969 -0.462036
v 0.699982 0.064969 -0.462036
v 0.758038 0.735205 -0.500355
v 0.758038 0.735205 0.500347
v 0.699982 0.064969 0.462029
v -0.822855 0.066699 -0.422173
v -0.822855 0.066699 0.422165
v -0.891102 0.733331 0.457180
v -0.891102 0.733331 -0.457188
v 0.891094 0.733331 -0.457188
v 0.822847 0.066699 -0.422173
v 0.822847 0.066699 0.422165
v 0.891094 0.733331 0.457180
v -0.943699 0.824260 0.572098
v -0.943699 0.824260 -0.572105
v 0.943691 0.824260 -0.572105
v 0.943691 0.824260 0.572098
v -0.749018 0.119570 0.406599
v -0.749018 0.119570 -0.406607
v 0.749010 0.119570 -0.406607
v 0.749010 0.119570 0.406599
v -0.748063 0.020128 -0.453503
v -0.748063 0.020128 0.453495
v 0.748055 0.020128 -0.453503
v 0.748055 0.020128 0.453495
vn -0.0000 0.0525 -0.9986
vn -0.0000 -1.0000 -0.0000
vn -0.0000 1.0000 -0.0000
vn -0.9963 0.0863 -0.0000
vn -0.0000 -0.0000 -1.0000
vn 0.0300 -0.0626 0.9976
vn -0.0260 -0.0542 -0.9982
vn -0.0300 -0.0626 -0.9976
vn 0.0260 -0.0542 0.9982
vn -0.0000 -0.0000 1.0000
vn -1.0000 -0.0000 -0.0000
vn -0.9935 -0.0890 0.0704
vn -0.9913 -0.1032 0.0816
vn 0.9935 -0.0890 -0.0704
vn 1.0000 -0.0000 -0.0000
vn 0.9913 -0.1032 -0.0816
vn -0.0000 -0.0571 -0.9984
vn -0.0000 -0.0571 0.9984
vn 0.9963 0.0863 -0.0000
vn -0.9948 -0.1018 -0.0000
vn 0.9948 -0.1018 -0.0000
vn -0.0000 0.0525 0.9986
vn -0.0260 -0.0542 0.9982
vn 0.0300 -0.0626 -0.9976
vn 0.0260 -0.0542 -0.9982
vn -0.0300 -0.0626 0.9976
vn -0.9913 -0.1032 -0.0816
vn -0.9935 -0.0890 -0.0704
vn 0.9913 -0.1032 0.0816
vn 0.9935 -0.0890 0.0704
vt 0.985139 0.601979
vt 0.985905 0.626222
vt 0.986888 0.626218
vt 0.980752 0.634398
vt 0.958831 0.634023
vt 0.959042 0.634462
vt 0.953600 0.602183
vt 0.957843 0.613590
vt 0.957136 0.613594
vt 0.982341 0.600090
vt 0.983566 0.625855
vt 0.982143 0.601256
vt 0.955718 0.598589
vt 0.982971 0.598401
vt 0.983113 0.630155
vt 0.955856 0.604332
vt 0.955545 0.630249
vt 0.954596 0.625201
vt 0.953076 0.597238
vt 0.956221 0.600265
vt 0.957511 0.612317
vt 0.956360 0.637082
vt 0.959923 0.614661
vt 0.982302 0.612184
vt 0.983441 0.637011
vt 0.979873 0.614559
vt 0.983819 0.625085
vt 0.985517 0.597010
vt 0.987453 0.628578
vt 0.950976 0.628708
vt 0.951731 0.626353
vt 0.955980 0.633704
vt 0.983723 0.633621
vt 0.982576 0.613461
vt 0.959047 0.611478
vt 0.980690 0.611360
vt 0.905561 0.634023
vt 0.926723 0.613856
vt 0.906473 0.613961
vt 0.935138 0.612434
vt 0.908092 0.588003
vt 0.933715 0.587835
vt 0.959743 0.613961
vt 0.956520 0.601424
vt 0.980897 0.633957
vt 0.979993 0.613856
vt 0.954963 0.625966
vt 0.899437 0.626349
vt 0.904573 0.613590
vt 0.901206 0.602178
vt 0.929677 0.633623
vt 0.930987 0.601984
vt 0.928595 0.613464
vt 0.984257 0.601984
vt 0.956751 0.633702
vt 0.952707 0.626349
vt 0.954476 0.602178
vt 0.982947 0.633623
vt 0.981865 0.613464
vt 0.958653 0.636140
vt 0.980979 0.636079
vt 0.958857 0.614975
vt 0.982885 0.604163
vt 0.980827 0.614863
vt 0.927420 0.611360
vt 0.902448 0.598589
vt 0.905777 0.611478
vt 0.927627 0.633957
vt 0.906535 0.612545
vt 0.903481 0.633702
vt 0.932634 0.626222
vt 0.929701 0.598401
s 0
usemtl Colors
f 16/1/1 44/2/1 15/3/1
f 8/4/2 31/5/2 4/6/2
f 9/7/3 37/8/3 12/9/3
f 5/10/4 35/11/4 36/12/4
f 18/13/5 56/14/5 23/14/5
f 24/15/5 49/16/5 19/17/5
f 2/18/6 26/19/6 1/20/6
f 4/6/7 25/21/7 46/22/7
f 3/23/5 27/24/5 25/21/5
f 4/6/5 47/25/5 8/4/5
f 8/4/8 27/24/8 7/26/8
f 6/27/9 28/28/9 48/29/9
f 1/20/10 28/28/10 5/10/10
f 6/27/10 45/30/10 2/18/10
f 9/7/11 25/21/11 26/19/11
f 10/31/12 26/19/12 45/30/12
f 10/31/11 46/22/11 11/32/11
f 11/32/13 25/21/13 12/9/13
f 14/33/14 27/24/14 47/25/14
f 13/34/15 28/28/15 27/24/15
f 14/33/15 48/29/15 15/3/15
f 15/3/16 28/28/16 16/1/16
f 18/13/2 25/21/2 17/35/2
f 17/35/2 27/24/2 22/36/2
f 22/36/2 28/28/2 23/14/2
f 23/14/2 26/19/2 18/13/2
f 31/37/17 33/38/17 32/39/17
f 35/40/18 29/41/18 36/42/18
f 3/23/19 31/5/19 32/43/19
f 5/10/3 29/44/3 1/20/3
f 7/26/4 34/45/4 8/4/4
f 3/23/3 33/46/3 7/26/3
f 1/20/19 30/47/19 2/18/19
f 2/18/2 35/11/2 6/27/2
f 39/48/20 37/49/20 38/50/20
f 41/51/21 43/52/21 42/53/21
f 13/34/3 43/54/3 16/1/3
f 12/9/22 40/55/22 11/32/22
f 9/7/1 39/56/1 38/57/1
f 15/3/2 41/58/2 14/33/2
f 13/34/22 41/58/22 42/59/22
f 11/32/2 39/56/2 10/31/2
f 20/60/3 45/30/3 19/17/3
f 21/61/3 46/22/3 20/60/3
f 24/15/3 47/25/3 21/61/3
f 19/17/3 48/29/3 24/15/3
f 50/62/3 52/63/3 51/64/3
f 20/60/10 51/64/10 21/61/10
f 21/61/11 52/63/11 24/15/11
f 19/17/15 50/62/15 20/60/15
f 55/65/2 54/66/2 53/67/2
f 22/36/10 53/35/10 17/35/10
f 23/14/11 55/36/11 22/36/11
f 17/35/15 54/13/15 18/13/15
f 16/1/1 43/54/1 44/2/1
f 8/4/2 34/45/2 31/5/2
f 9/7/3 38/57/3 37/8/3
f 5/10/4 6/27/4 35/11/4
f 18/13/5 54/13/5 56/14/5
f 24/15/5 52/63/5 49/16/5
f 2/18/23 45/30/23 26/19/23
f 4/6/24 3/23/24 25/21/24
f 3/23/5 7/26/5 27/24/5
f 4/6/5 46/22/5 47/25/5
f 8/4/25 47/25/25 27/24/25
f 6/27/26 5/10/26 28/28/26
f 1/20/10 26/19/10 28/28/10
f 6/27/10 48/29/10 45/30/10
f 9/7/11 12/9/11 25/21/11
f 10/31/27 9/7/27 26/19/27
f 10/31/11 45/30/11 46/22/11
f 11/32/28 46/22/28 25/21/28
f 14/33/29 13/34/29 27/24/29
f 13/34/15 16/1/15 28/28/15
f 14/33/15 47/25/15 48/29/15
f 15/3/30 48/29/30 28/28/30
f 18/13/2 26/19/2 25/21/2
f 17/35/2 25/21/2 27/24/2
f 22/36/2 27/24/2 28/28/2
f 23/14/2 28/28/2 26/19/2
f 31/37/17 34/68/17 33/38/17
f 35/40/18 30/69/18 29/41/18
f 3/23/19 4/6/19 31/5/19
f 5/10/3 36/12/3 29/44/3
f 7/26/4 33/46/4 34/45/4
f 3/23/3 32/43/3 33/46/3
f 1/20/19 29/44/19 30/47/19
f 2/18/2 30/47/2 35/11/2
f 39/48/20 40/70/20 37/49/20
f 41/51/21 44/71/21 43/52/21
f 13/34/3 42/59/3 43/54/3
f 12/9/22 37/8/22 40/55/22
f 9/7/1 10/31/1 39/56/1
f 15/3/2 44/2/2 41/58/2
f 13/34/22 14/33/22 41/58/22
f 11/32/2 40/55/2 39/56/2
f 20/60/3 46/22/3 45/30/3
f 21/61/3 47/25/3 46/22/3
f 24/15/3 48/29/3 47/25/3
f 19/17/3 45/30/3 48/29/3
f 50/62/3 49/16/3 52/63/3
f 20/60/10 50/62/10 51/64/10
f 21/61/11 51/64/11 52/63/11
f 19/17/15 49/16/15 50/62/15
f 55/65/2 56/72/2 54/66/2
f 22/36/10 55/36/10 53/35/10
f 23/14/11 56/14/11 55/36/11
f 17/35/15 53/35/15 54/13/15
o Cylinder.091
v 0.746229 0.899757 0.555462
v -0.746226 0.899758 0.555462
v 0.944340 0.888613 0.499178
v -0.944336 0.888613 0.499178
v 0.746229 0.899757 0.555462
v -0.746226 0.899758 0.555462
v -0.746226 0.813458 -0.571995
v 0.746229 0.813458 -0.571995
v 0.746229 0.813458 0.572550
v -0.746226 0.813458 0.572550
v 0.746229 1.033461 0.528988
v -0.746226 1.033461 0.528988
v 0.746229 1.219971 0.404936
v -0.746226 1.219971 0.404936
v 0.746229 1.344593 0.219276
v -0.746226 1.344593 0.219276
v 0.746229 1.388354 0.000277
v -0.746226 1.388354 0.000277
v 0.746229 1.344593 -0.218721
v -0.746226 1.344593 -0.218721
v 0.746229 1.219971 -0.404381
v -0.746226 1.219971 -0.404381
v 0.746229 1.033461 -0.528435
v -0.746226 1.033461 -0.528435
v 0.746229 0.813458 -0.571995
v 0.944340 0.870836 -0.502144
v -0.746226 0.813458 0.572550
v -0.944336 0.870836 0.502697
v -0.944336 1.011157 0.474913
v 0.944340 1.011157 0.474913
v 0.944340 0.870836 0.502697
v -0.746226 1.033461 0.528988
v -0.944336 1.178692 0.363482
v 0.944340 1.178692 0.363482
v -0.746226 1.219971 0.404936
v -0.944336 1.290571 0.196806
v 0.944340 1.290571 0.196806
v -0.746226 1.344593 0.219276
v -0.944336 1.329842 0.000277
v 0.944340 1.329842 0.000277
v -0.746226 1.388354 0.000277
v -0.944336 1.290571 -0.196251
v 0.944340 1.290571 -0.196251
v -0.746226 1.344593 -0.218721
v -0.944336 1.178692 -0.362926
v 0.944340 1.178692 -0.362926
v -0.746226 1.219971 -0.404381
v -0.944336 1.011157 -0.474360
v 0.944340 1.011157 -0.474360
v -0.746226 1.033461 -0.528435
v -0.944336 0.870836 -0.502144
v -0.746226 0.813458 -0.571995
v 0.746229 0.813458 0.572550
v 0.746229 1.033461 0.528988
v 0.746229 1.219971 0.404936
v 0.746229 1.344593 0.219276
v 0.746229 1.388354 0.000277
v 0.746229 1.344593 -0.218721
v 0.746229 1.219971 -0.404381
v 0.746229 1.033461 -0.528435
v -0.746226 0.885394 -0.557753
v 0.746229 0.885394 -0.557753
v -0.944336 0.874250 -0.501467
v 0.944340 0.874250 -0.501467
v -0.746226 0.885394 -0.557753
v 0.746229 0.885394 -0.557753
v 0.746229 0.891682 0.515049
v -0.746226 0.891682 0.515049
v 0.746229 1.017621 0.490919
v -0.746226 1.017621 0.490919
v 0.746229 1.190701 0.375799
v -0.746226 1.190701 0.375799
v 0.746229 1.306350 0.203508
v -0.746226 1.306350 0.203508
v 0.746229 1.346960 0.000277
v -0.746226 1.346960 0.000277
v 0.746229 1.306350 -0.202953
v -0.746226 1.306350 -0.202953
v 0.746229 1.190701 -0.375244
v -0.746226 1.190701 -0.375244
v 0.746229 1.017621 -0.490366
v -0.746226 1.017621 -0.490366
v -0.746226 0.877319 -0.517338
v 0.746229 0.877319 -0.517338
v 0.944340 1.033461 0.528988
v 0.944340 0.899758 0.555462
v -0.944336 0.813458 0.572550
v -0.944336 0.899758 0.555462
v -0.944336 1.033461 0.528988
v 0.944340 0.813458 0.572550
v -0.944336 1.219971 0.404936
v 0.944340 1.219971 0.404936
v -0.944336 1.344593 0.219276
v 0.944340 1.344593 0.219276
v -0.944336 1.388354 0.000277
v 0.944340 1.388354 0.000277
v -0.944336 1.344593 -0.218721
v 0.944340 1.344593 -0.218721
v -0.944336 1.219971 -0.404381
v 0.944340 1.219971 -0.404381
v -0.944336 1.033461 -0.528435
v 0.944340 1.033461 -0.528435
v -0.944336 0.885394 -0.557753
v -0.944336 0.813458 -0.571995
v 0.944340 0.885394 -0.557753
v 0.944340 0.813458 -0.571995
v 0.913994 1.011157 0.474913
v 0.913994 0.888613 0.499178
v -0.913990 0.870836 0.502697
v -0.913990 0.888613 0.499178
v -0.913990 1.011157 0.474913
v 0.913994 0.870836 0.502697
v -0.913990 1.178692 0.363482
v 0.913994 1.178692 0.363482
v -0.913990 1.290571 0.196806
v 0.913994 1.290571 0.196806
v -0.913990 1.329842 0.000277
v 0.913994 1.329842 0.000277
v -0.913990 1.290571 -0.196251
v 0.913994 1.290571 -0.196251
v -0.913990 1.178692 -0.362926
v 0.913994 1.178692 -0.362926
v -0.913990 1.011157 -0.474360
v 0.913994 1.011157 -0.474360
v -0.913990 0.874250 -0.501467
v -0.913990 0.870836 -0.502144
v 0.913994 0.874250 -0.501467
v 0.913994 0.870836 -0.502144
vn -0.0000 0.1942 0.9810
vn -0.0000 1.0000 -0.0000
vn -0.0000 -1.0000 -0.0000
vn -0.0000 0.1942 -0.9810
vn -1.0000 -0.0000 -0.0000
vn 1.0000 -0.0000 -0.0000
vn -0.0000 0.5538 0.8326
vn -0.0000 0.8303 0.5573
vn -0.0000 0.9806 0.1959
vn -0.0000 0.9806 -0.1960
vn -0.0000 0.8303 -0.5573
vn -0.0000 0.5538 -0.8326
vn -0.0000 -0.8303 0.5573
vn -0.0000 0.1882 0.9821
vn -0.0000 0.1888 -0.9820
vn -0.0000 -0.5538 -0.8326
vn -0.0000 -0.1942 0.9810
vn -0.0000 -0.8303 -0.5573
vn -0.0000 -0.1946 0.9809
vn -0.0000 -0.5538 0.8326
vn -0.0000 -0.1942 -0.9810
vn -0.0000 -0.9806 -0.1959
vn -0.0000 -0.1945 0.9809
vn -0.0000 -0.9806 0.1960
vt 0.984012 0.578888
vt 0.981369 0.583411
vt 0.980995 0.582792
vt 0.955018 0.616408
vt 0.958113 0.613513
vt 0.955001 0.617542
vt 0.958161 0.615240
vt 0.983578 0.599064
vt 0.961002 0.625717
vt 0.962172 0.627524
vt 0.983078 0.587358
vt 0.981971 0.584408
vt 0.963736 0.624860
vt 0.958083 0.612441
vt 0.984869 0.599522
vt 0.985046 0.597784
vt 0.958758 0.618884
vt 0.963079 0.627864
vt 0.984087 0.591094
vt 0.984339 0.599907
vt 0.959777 0.622644
vt 0.983820 0.599332
vt 0.963696 0.625498
vt 0.963609 0.626870
vt 0.983021 0.587696
vt 0.982004 0.584975
vt 0.984784 0.594819
vt 0.984840 0.597300
vt 0.958950 0.618901
vt 0.984201 0.599316
vt 0.962090 0.626874
vt 0.962934 0.627218
vt 0.983948 0.591127
vt 0.963433 0.626323
vt 0.963517 0.625026
vt 0.984431 0.579447
vt 0.986280 0.583209
vt 0.987287 0.586941
vt 0.987915 0.590751
vt 0.988058 0.593867
vt 0.987740 0.595788
vt 0.986472 0.595883
vt 0.986194 0.595664
vt 0.959933 0.630719
vt 0.958987 0.630551
vt 0.986315 0.594983
vt 0.984410 0.580151
vt 0.961084 0.628307
vt 0.961006 0.628995
vt 0.960837 0.630474
vt 0.960165 0.631655
vt 0.959112 0.631503
vt 0.957819 0.629852
vt 0.956523 0.626867
vt 0.955502 0.623104
vt 0.954975 0.619367
vt 0.987071 0.596354
vt 0.984686 0.598931
vt 0.926573 0.615708
vt 0.905320 0.643099
vt 0.904821 0.643994
vt 0.926727 0.614076
vt 0.903978 0.643651
vt 0.926479 0.611331
vt 0.902898 0.641964
vt 0.925835 0.607904
vt 0.901773 0.639131
vt 0.924908 0.604473
vt 0.900837 0.635678
vt 0.923891 0.601751
vt 0.900284 0.632325
vt 0.923329 0.600820
vt 0.900238 0.630713
vt 0.926088 0.616093
vt 0.905404 0.641802
vt 0.983709 0.598775
vt 0.961011 0.625188
vt 0.958351 0.613936
vt 0.958397 0.615548
vt 0.984592 0.594554
vt 0.981442 0.584044
vt 0.959886 0.622354
vt 0.985117 0.581128
vt 0.984498 0.580273
vt 0.955327 0.617799
vt 0.955325 0.618041
vt 0.955313 0.619728
vt 0.955786 0.623057
vt 0.986162 0.583679
vt 0.985106 0.580349
vt 0.956689 0.626395
vt 0.987057 0.586986
vt 0.957836 0.629056
vt 0.987619 0.590368
vt 0.987755 0.593155
vt 0.960545 0.629684
vt 0.987481 0.594898
vt 0.960706 0.628271
vt 0.986887 0.595434
vt 0.960702 0.628304
vt 0.986328 0.594993
vt 0.928229 0.610683
vt 0.929346 0.609245
vt 0.928799 0.604417
vt 0.903963 0.628722
vt 0.905928 0.637344
vt 0.908171 0.636756
vt 0.925596 0.615552
vt 0.928099 0.601828
vt 0.927281 0.599831
vt 0.926796 0.599162
vt 0.926727 0.599066
vt 0.928218 0.610675
vt 0.928666 0.611028
vt 0.929131 0.610609
vt 0.929239 0.607064
vt 0.908174 0.636729
vt 0.903965 0.628534
vt 0.903954 0.630043
vt 0.904324 0.632649
vt 0.905031 0.635262
vt 0.906829 0.638514
vt 0.907570 0.638645
vt 0.908049 0.637836
s 0
usemtl Colors
f 146/73/31 57/74/31 109/75/31
f 143/76/31 58/77/31 144/78/31
f 62/77/32 88/79/32 58/77/32
f 65/75/32 81/80/32 109/75/32
f 74/81/32 100/82/32 97/81/32
f 69/83/32 110/84/32 111/83/32
f 63/85/32 83/86/32 108/85/32
f 77/87/32 114/88/32 115/87/32
f 68/79/32 91/89/32 88/79/32
f 76/82/32 103/90/32 100/82/32
f 71/91/32 111/83/32 112/91/32
f 79/92/32 115/87/32 116/92/32
f 64/80/33 66/86/33 63/85/33
f 70/89/32 94/93/32 91/89/32
f 118/94/34 63/85/34 117/95/34
f 78/90/32 106/96/32 103/90/32
f 67/84/35 127/97/35 125/98/35
f 73/99/32 112/91/32 113/99/32
f 77/87/35 133/100/35 75/88/35
f 118/94/32 116/92/32 122/94/32
f 68/79/36 128/101/36 70/89/36
f 72/93/32 97/81/32 94/93/32
f 118/94/35 137/102/35 79/92/35
f 61/74/32 109/75/32 57/74/32
f 78/90/36 134/103/36 136/104/36
f 117/95/32 108/85/32 121/95/32
f 69/83/35 129/105/35 127/97/35
f 75/88/32 113/99/32 114/88/32
f 117/95/36 138/106/36 139/107/36
f 142/108/31 110/84/31 57/74/31
f 110/84/37 148/109/37 111/83/37
f 111/83/38 150/110/38 112/91/38
f 150/110/39 113/99/39 112/91/39
f 152/111/40 114/88/40 113/99/40
f 154/112/41 115/87/41 114/88/41
f 156/113/42 116/92/42 115/87/42
f 161/114/34 81/80/34 122/94/34
f 162/115/33 109/75/33 81/80/33
f 101/116/43 175/117/43 98/117/43
f 82/118/32 168/119/32 87/119/32
f 108/85/33 143/76/33 160/120/33
f 121/95/34 160/120/34 159/121/34
f 103/90/42 157/122/42 155/123/42
f 100/82/41 155/123/41 153/124/41
f 97/81/40 153/124/40 151/125/40
f 94/93/39 151/125/39 149/126/39
f 91/89/38 149/126/38 147/127/38
f 88/79/37 147/127/37 145/128/37
f 58/77/31 145/128/31 144/78/31
f 65/75/31 62/77/31 66/86/31
f 67/84/32 57/74/32 110/84/32
f 66/86/32 58/77/32 83/86/32
f 106/96/34 159/121/34 157/122/34
f 158/129/34 122/94/34 116/92/34
f 80/96/32 121/95/32 106/96/32
f 64/80/32 122/94/32 81/80/32
f 79/92/35 135/130/35 77/87/35
f 135/131/42 138/132/42 136/133/42
f 133/134/41 136/133/41 134/135/41
f 131/136/40 134/135/40 132/137/40
f 129/138/39 132/137/39 130/139/39
f 127/140/38 130/139/38 128/141/38
f 125/142/37 128/141/37 126/143/37
f 123/144/44 126/143/44 124/145/44
f 137/146/45 139/147/45 138/132/45
f 117/95/39 140/148/39 118/94/39
f 76/82/36 132/149/36 134/103/36
f 61/74/40 124/150/40 62/77/40
f 62/77/36 126/151/36 68/79/36
f 75/88/35 131/152/35 73/99/35
f 61/74/35 125/98/35 123/153/35
f 72/93/36 132/149/36 74/81/36
f 71/91/35 131/152/35 129/105/35
f 80/96/36 136/104/36 138/106/36
f 70/89/36 130/154/36 72/93/36
f 86/155/36 142/108/36 59/156/36
f 84/157/35 144/78/35 60/158/35
f 85/159/35 144/78/35 145/128/35
f 87/119/36 142/108/36 146/73/36
f 89/160/35 145/128/35 147/127/35
f 90/161/36 141/162/36 86/155/36
f 92/163/35 147/127/35 149/126/35
f 93/164/36 148/109/36 90/161/36
f 95/165/35 149/126/35 151/125/35
f 96/166/36 150/110/36 93/164/36
f 95/165/35 153/124/35 98/117/35
f 96/166/36 154/112/36 152/111/36
f 98/117/35 155/123/35 101/116/35
f 99/167/36 156/113/36 154/112/36
f 101/116/35 157/122/35 104/168/35
f 102/169/36 158/129/36 156/113/36
f 107/170/35 159/121/35 160/120/35
f 105/171/36 161/114/36 158/129/36
f 84/157/35 160/120/35 143/76/35
f 87/119/36 162/115/36 82/118/36
f 104/168/35 159/121/35 119/172/35
f 82/118/36 161/114/36 120/173/36
f 183/174/36 176/175/36 172/176/36
f 166/177/35 173/178/35 181/179/35
f 86/155/46 170/161/46 90/161/46
f 119/172/47 179/168/47 104/168/47
f 99/167/43 178/169/43 102/169/43
f 92/163/48 169/160/48 89/160/48
f 120/173/49 184/118/49 82/118/49
f 104/168/50 177/116/50 101/116/50
f 90/161/48 172/164/48 93/164/48
f 59/156/51 163/155/51 86/155/51
f 102/169/50 180/171/50 105/171/50
f 95/165/52 171/163/52 92/163/52
f 60/158/51 165/157/51 84/157/51
f 107/170/53 181/172/53 119/172/53
f 93/164/52 174/166/52 96/166/52
f 85/159/51 166/158/51 60/158/51
f 105/171/47 183/173/47 120/173/47
f 98/117/54 173/165/54 95/165/54
f 87/119/51 164/156/51 59/156/51
f 84/157/32 182/170/32 107/170/32
f 96/166/54 176/167/54 99/167/54
f 89/160/46 167/159/46 85/159/46
f 146/73/31 142/108/31 57/74/31
f 143/76/31 83/86/31 58/77/31
f 62/77/32 68/79/32 88/79/32
f 65/75/32 64/80/32 81/80/32
f 74/81/32 76/82/32 100/82/32
f 69/83/32 67/84/32 110/84/32
f 63/85/32 66/86/32 83/86/32
f 77/87/32 75/88/32 114/88/32
f 68/79/32 70/89/32 91/89/32
f 76/82/32 78/90/32 103/90/32
f 71/91/32 69/83/32 111/83/32
f 79/92/32 77/87/32 115/87/32
f 64/80/33 65/75/33 66/86/33
f 70/89/32 72/93/32 94/93/32
f 118/94/34 64/80/34 63/85/34
f 78/90/32 80/96/32 106/96/32
f 67/84/35 69/83/35 127/97/35
f 73/99/32 71/91/32 112/91/32
f 77/87/35 135/130/35 133/100/35
f 118/94/32 79/92/32 116/92/32
f 68/79/36 126/151/36 128/101/36
f 72/93/32 74/81/32 97/81/32
f 118/94/35 140/148/35 137/102/35
f 61/74/32 65/75/32 109/75/32
f 78/90/36 76/82/36 134/103/36
f 117/95/32 63/85/32 108/85/32
f 69/83/35 71/91/35 129/105/35
f 75/88/32 73/99/32 113/99/32
f 117/95/36 80/96/36 138/106/36
f 142/108/31 141/162/31 110/84/31
f 110/84/37 141/162/37 148/109/37
f 111/83/38 148/109/38 150/110/38
f 150/110/39 152/111/39 113/99/39
f 152/111/40 154/112/40 114/88/40
f 154/112/41 156/113/41 115/87/41
f 156/113/42 158/129/42 116/92/42
f 161/114/34 162/115/34 81/80/34
f 162/115/33 146/73/33 109/75/33
f 101/116/43 177/116/43 175/117/43
f 82/118/32 184/118/32 168/119/32
f 108/85/33 83/86/33 143/76/33
f 121/95/34 108/85/34 160/120/34
f 103/90/42 106/96/42 157/122/42
f 100/82/41 103/90/41 155/123/41
f 97/81/40 100/82/40 153/124/40
f 94/93/39 97/81/39 151/125/39
f 91/89/38 94/93/38 149/126/38
f 88/79/37 91/89/37 147/127/37
f 58/77/31 88/79/31 145/128/31
f 65/75/31 61/74/31 62/77/31
f 67/84/32 61/74/32 57/74/32
f 66/86/32 62/77/32 58/77/32
f 106/96/34 121/95/34 159/121/34
f 158/129/34 161/114/34 122/94/34
f 80/96/32 117/95/32 121/95/32
f 64/80/32 118/94/32 122/94/32
f 79/92/35 137/102/35 135/130/35
f 135/131/42 137/146/42 138/132/42
f 133/134/41 135/131/41 136/133/41
f 131/136/40 133/134/40 134/135/40
f 129/138/39 131/136/39 132/137/39
f 127/140/38 129/138/38 130/139/38
f 125/142/37 127/140/37 128/141/37
f 123/144/44 125/142/44 126/143/44
f 137/146/45 140/180/45 139/147/45
f 117/95/39 139/107/39 140/148/39
f 76/82/36 74/81/36 132/149/36
f 61/74/40 123/153/40 124/150/40
f 62/77/36 124/150/36 126/151/36
f 75/88/35 133/100/35 131/152/35
f 61/74/35 67/84/35 125/98/35
f 72/93/36 130/154/36 132/149/36
f 71/91/35 73/99/35 131/152/35
f 80/96/36 78/90/36 136/104/36
f 70/89/36 128/101/36 130/154/36
f 86/155/36 141/162/36 142/108/36
f 84/157/35 143/76/35 144/78/35
f 85/159/35 60/158/35 144/78/35
f 87/119/36 59/156/36 142/108/36
f 89/160/35 85/159/35 145/128/35
f 90/161/36 148/109/36 141/162/36
f 92/163/35 89/160/35 147/127/35
f 93/164/36 150/110/36 148/109/36
f 95/165/35 92/163/35 149/126/35
f 96/166/36 152/111/36 150/110/36
f 95/165/35 151/125/35 153/124/35
f 96/166/36 99/167/36 154/112/36
f 98/117/35 153/124/35 155/123/35
f 99/167/36 102/169/36 156/113/36
f 101/116/35 155/123/35 157/122/35
f 102/169/36 105/171/36 158/129/36
f 107/170/35 119/172/35 159/121/35
f 105/171/36 120/173/36 161/114/36
f 84/157/35 107/170/35 160/120/35
f 87/119/36 146/73/36 162/115/36
f 104/168/35 157/122/35 159/121/35
f 82/118/36 162/115/36 161/114/36
f 170/181/36 163/182/36 164/183/36
f 164/183/36 168/184/36 184/185/36
f 183/174/36 180/186/36 178/187/36
f 164/183/36 184/185/36 183/174/36
f 172/176/36 170/181/36 164/183/36
f 176/175/36 174/188/36 172/176/36
f 183/174/36 178/187/36 176/175/36
f 172/176/36 164/183/36 183/174/36
f 182/189/35 165/190/35 166/177/35
f 166/177/35 167/191/35 169/192/35
f 169/192/35 171/193/35 173/178/35
f 173/178/35 175/194/35 177/195/35
f 177/195/35 179/196/35 181/179/35
f 181/179/35 182/189/35 166/177/35
f 166/177/35 169/192/35 173/178/35
f 173/178/35 177/195/35 181/179/35
f 86/155/46 163/155/46 170/161/46
f 119/172/47 181/172/47 179/168/47
f 99/167/43 176/167/43 178/169/43
f 92/163/48 171/163/48 169/160/48
f 120/173/53 183/173/53 184/118/53
f 104/168/50 179/168/50 177/116/50
f 90/161/48 170/161/48 172/164/48
f 59/156/51 164/156/51 163/155/51
f 102/169/50 178/169/50 180/171/50
f 95/165/52 173/165/52 171/163/52
f 60/158/51 166/158/51 165/157/51
f 107/170/49 182/170/49 181/172/49
f 93/164/52 172/164/52 174/166/52
f 85/159/51 167/159/51 166/158/51
f 105/171/47 180/171/47 183/173/47
f 98/117/54 175/117/54 173/165/54
f 87/119/51 168/119/51 164/156/51
f 84/157/32 165/157/32 182/170/32
f 96/166/54 174/166/54 176/167/54
f 89/160/46 169/160/46 167/159/46
