{
  "accessors": [
    {
      "bufferView": 2,
      "componentType": 5126,
      "count": 125,
      "max": [
        1.9366466999053955,
        3.103863477706909,
        1.3653100728988647
      ],
      "min": [
        -1.7449833154678345,
        0.0007736086845397949,
        -1.1900994777679443
      ],
      "type": "VEC3"
    },
    {
      "bufferView": 2,
      "byteOffset": 1500,
      "componentType": 5126,
      "count": 125,
      "max": [
        0.9853965044021606,
        0.9786524176597595,
        0.9971743226051331
      ],
      "min": [
        -0.995192289352417,
        -0.9987543225288391,
        -0.9993253946304321
      ],
      "type": "VEC3"
    },
    {
      "bufferView": 3,
      "componentType": 5126,
      "count": 125,
      "max": [
        0.7139806151390076,
        0.9989575147628784,
        0.9795615077018738,
        1.0
      ],
      "min": [
        -0.9755027294158936,
        -0.9994389414787292,
        -0.9933640956878662,
        1.0
      ],
      "type": "VEC4"
    },
    {
      "bufferView": 1,
      "componentType": 5126,
      "count": 125,
      "max": [
        0.9998747110366821,
        0.9882595539093018
      ],
      "min": [
        0.0001253202062798664,
        0.0001253202062798664
      ],
      "type": "VEC2"
    },
    {
      "bufferView": 1,
      "byteOffset": 1000,
      "componentType": 5126,
      "count": 125,
      "max": [
        0.9998747110366821,
        0.9882595539093018
      ],
      "min": [
        0.0001253202062798664,
        0.0001253202062798664
      ],
      "type": "VEC2"
    },
    {
      "bufferView": 1,
      "byteOffset": 2000,
      "componentType": 5126,
      "count": 125,
      "max": [
        0.9998747110366821,
        0.9882595539093018
      ],
      "min": [
        0.0001253202062798664,
        0.0001253202062798664
      ],
      "type": "VEC2"
    },
    {
      "bufferView": 0,
      "componentType": 5125,
      "count": 585,
      "type": "SCALAR"
    }
  ],
  "asset": {
    "extras": {
      "author": "Alex_Pepper (https://sketchfab.com/aleksander.smirnov992)",
      "license": "CC-BY-4.0 (http://creativecommons.org/licenses/by/4.0/)",
      "source": "https://sketchfab.com/3d-models/stylized-low-poly-stone-c7de83088a904a1a8b7420b00d395dec",
      "title": "Stylized low-poly stone"
    },
    "generator": "Sketchfab-12.67.0",
    "version": "2.0"
  },
  "bufferViews": [
    {
      "buffer": 0,
      "byteLength": 2340,
      "name": "floatBufferViews",
      "target": 34963
    },
    {
      "buffer": 0,
      "byteLength": 3000,
      "byteOffset": 2340,
      "byteStride": 8,
      "name": "floatBufferViews",
      "target": 34962
    },
    {
      "buffer": 0,
      "byteLength": 3000,
      "byteOffset": 5340,
      "byteStride": 12,
      "name": "floatBufferViews",
      "target": 34962
    },
    {
      "buffer": 0,
      "byteLength": 2000,
      "byteOffset": 8340,
      "byteStride": 16,
      "name": "floatBufferViews",
      "target": 34962
    }
  ],
  "buffers": [
    {
      "byteLength": 10340,
      "uri": "scene.bin"
    }
  ],
  "images": [
    {
      "uri": "textures/Stone_low_baseColor.png"
    },
    {
      "uri": "textures/Stone_low_metallicRoughness.png"
    },
    {
      "uri": "textures/Stone_low_normal.png"
    }
  ],
  "materials": [
    {
      "doubleSided": true,
      "name": "Stone_low",
      "normalTexture": {
        "index": 2
      },
      "pbrMetallicRoughness": {
        "baseColorTexture": {
          "index": 0
        },
        "metallicRoughnessTexture": {
          "index": 1
        }
      }
    }
  ],
  "meshes": [
    {
      "name": "Object_0",
      "primitives": [
        {
          "attributes": {
            "NORMAL": 1,
            "POSITION": 0,
            "TANGENT": 2,
            "TEXCOORD_0": 3,
            "TEXCOORD_1": 4,
            "TEXCOORD_2": 5
          },
          "indices": 6,
          "material": 0,
          "mode": 4
        }
      ]
    }
  ],
  "nodes": [
    {
      "children": [
        1
      ],
      "matrix": [
        1.0,
        0.0,
        0.0,
        0.0,
        0.0,
        2.220446049250313e-16,
        -1.0,
        0.0,
        0.0,
        1.0,
        2.220446049250313e-16,
        0.0,
        0.0,
        0.0,
        0.0,
        1.0
      ],
      "name": "Sketchfab_model"
    },
    {
      "children": [
        2
      ],
      "name": "root"
    },
    {
      "children": [
        3
      ],
      "matrix": [
        1.0,
        0.0,
        0.0,
        0.0,
        0.0,
        2.220446049250313e-16,
        1.0,
        0.0,
        0.0,
        -1.0,
        2.220446049250313e-16,
        0.0,
        0.0,
        0.0,
        0.0,
        1.0
      ],
      "name": "GLTF_SceneRootNode"
    },
    {
      "children": [
        4
      ],
      "name": "Stone_low_2"
    },
    {
      "mesh": 0,
      "name": "Object_4"
    }
  ],
  "samplers": [
    {
      "magFilter": 9729,
      "minFilter": 9987,
      "wrapS": 10497,
      "wrapT": 10497
    }
  ],
  "scene": 0,
  "scenes": [
    {
      "name": "Sketchfab_Scene",
      "nodes": [
        0
      ]
    }
  ],
  "textures": [
    {
      "sampler": 0,
      "source": 0
    },
    {
      "sampler": 0,
      "source": 1
    },
    {
      "sampler": 0,
      "source": 2
    }
  ]
}
