# Blender 4.0.2
# www.blender.org
mtllib RedGem.mtl
o Gem1
v -0.125932 0.262239 -0.001893
v 0.138551 0.262239 -0.001893
v -0.095464 0.145471 -0.253857
v 0.108083 0.145471 -0.253857
v -0.095464 -0.145471 -0.253857
v 0.108083 -0.145471 -0.253857
v -0.125932 -0.262239 -0.001893
v 0.138551 -0.262239 -0.001893
v -0.095464 -0.145471 0.250070
v 0.108083 -0.145471 0.250070
v -0.095464 0.145471 0.250070
v 0.108083 0.145471 0.250070
v 0.006310 0.328930 -0.001893
v 0.006310 0.164465 -0.286755
v 0.006310 -0.164465 -0.286755
v 0.006310 -0.328930 -0.001893
v 0.006310 -0.164465 0.282968
v 0.006310 0.164465 0.282968
vn 0.3076 0.8240 -0.4758
vn 0.3076 -0.0000 -0.9515
vn 0.3076 -0.8240 -0.4758
vn 0.3076 -0.8240 0.4758
vn 0.3076 -0.0000 0.9515
vn 0.3076 0.8240 0.4758
vn 0.9928 -0.0000 0.1200
vn 0.9928 -0.0000 -0.1200
vn -0.9928 -0.0000 -0.1200
vn -0.9928 -0.0000 0.1200
vn -0.4078 0.8086 0.4241
vn -0.3076 -0.0000 0.9515
vn -0.4078 -0.8086 0.4241
vn -0.4078 -0.8086 -0.4241
vn -0.3076 -0.0000 -0.9515
vn -0.4078 0.8086 -0.4241
vn 0.4078 0.8086 -0.4241
vn 0.4078 -0.8086 -0.4241
vn 0.4078 -0.8086 0.4241
vn 0.4078 0.8086 0.4241
vn -0.3076 0.8240 0.4758
vn -0.3076 -0.8240 0.4758
vn -0.3076 -0.8240 -0.4758
vn -0.3076 0.8240 -0.4758
vt 0.859977 0.070520
vt 0.872190 0.060266
vt 0.873784 0.070520
vt 0.855045 0.085175
vt 0.859977 0.053951
vt 0.859977 0.087089
vt 0.847765 0.060266
vt 0.846171 0.070520
vt 0.847765 0.055864
vt 0.859977 0.096939
vt 0.847765 0.085175
vt 0.872190 0.055864
vt 0.872190 0.085175
vt 0.859977 0.044100
vt 0.847765 0.080773
vt 0.859977 0.083842
vt 0.864910 0.085175
vt 0.864910 0.055864
vt 0.872190 0.080773
vt 0.859977 0.057197
vt 0.855045 0.055864
s 0
usemtl Colors
f 13/1/1 4/2/1 14/3/1
f 4/4/2 15/5/2 14/6/2
f 6/2/3 16/1/3 15/3/3
f 16/1/4 10/7/4 17/8/4
f 17/5/5 12/4/5 18/6/5
f 12/7/6 13/1/6 18/8/6
f 10/9/7 2/10/7 12/11/7
f 2/10/8 6/12/8 4/13/8
f 3/13/9 7/14/9 1/10/9
f 7/14/10 11/11/10 1/10/10
f 11/15/11 13/1/11 1/16/11
f 17/5/12 11/17/12 9/18/12
f 16/1/13 9/15/13 7/16/13
f 5/19/14 16/1/14 7/16/14
f 14/6/15 5/18/15 3/17/15
f 13/1/16 3/19/16 1/16/16
f 13/1/17 2/20/17 4/2/17
f 4/4/2 6/21/2 15/5/2
f 6/2/18 8/20/18 16/1/18
f 16/1/19 8/20/19 10/7/19
f 17/5/5 10/21/5 12/4/5
f 12/7/20 2/20/20 13/1/20
f 10/9/7 8/14/7 2/10/7
f 2/10/8 8/14/8 6/12/8
f 3/13/9 5/12/9 7/14/9
f 7/14/10 9/9/10 11/11/10
f 11/15/21 18/8/21 13/1/21
f 17/5/12 18/6/12 11/17/12
f 16/1/22 17/8/22 9/15/22
f 5/19/23 15/3/23 16/1/23
f 14/6/15 15/5/15 5/18/15
f 13/1/24 14/3/24 3/19/24
